<?xml version="1.0" encoding="UTF-8"?>
<svg id="Layer_1" data-name="Layer 1" xmlns="http://www.w3.org/2000/svg" viewBox="0 0 673.61 316.69">
  <defs>
    <style>
      .cls-1 {
        fill: #e86d6c;
      }

      .cls-2 {
        isolation: isolate;
      }

      .cls-3 {
        fill: #1b75bc;
      }

      .cls-4 {
        fill: #2a4d7c;
      }

      .cls-5 {
        fill: #414142;
      }

      .cls-6 {
        fill: none;
        stroke: #1b75bc;
        stroke-miterlimit: 10;
        stroke-width: 2px;
      }

      .cls-7 {
        fill: #e1b865;
      }
    </style>
  </defs>
  <g>
    <path class="cls-4" d="M262.47,35.1c-2.01.57-4.59.9-6.85-.82-1.48-1.11-2.71-2.95-2.75-6.31-.08-8.82,8.2-16.61,12.83-18.12,2.3-.74,4.14-.78,5.54.25,1.15.82,1.8,1.85,2.13,2.91.37,1.15.29,2.25-.29,3.57-.49,1.11-1.15,2.75-1.6,3.94-.12.33-.41.62-.86.21-.94-.66-1.6-1.84-1.07-3.89.53-2.05,2.05-4.35,1.15-5.25-1.31-1.35-8,2.17-11.89,8.12-3.81,5.82-3.69,12.05-2.05,13.57,2.25,2.09,7.05-.98,9.55-5.95-1.31.25-2.62.49-3.61.57-2.05.21-3.32-.66-3.94-1.97-.21-.41-.08-.66.41-.66,3.2-.04,6.31-1.07,8.81-1.11,2.05-.04,3.2.86,3.73,2.09.2.45.12.74-.41.66-.78-.08-1.8-.04-2.87.08,1.07,3.85-3.94,7.54-5.99,8.12Z"/>
    <path class="cls-4" d="M281,20.01c.49-.33.82-.41,1.11-.08.78.86,1.76,2.67.57,4.02-1.84,2.09-3.85,4.67-4.51,6.81-.66,2.13-.16,3.73,1.02,3.77,1.6.08,3.57-2.46,4.88-5.41.16-.33.41-.37.57-.04.21.45.25,1.44-.21,2.54-.94,2.38-3.32,4.1-5.49,4.02-2.95-.12-4.14-2.83-3.12-5.9.9-2.71,3.28-5.62,4.92-7.5-1.8,1.19-3.57,1.56-4.8,1.56-1.56,2.87-5.49,8.69-6.27,12.42-.08.37-.33.57-.7.21-1.19-1.23-1.19-3.12-.08-5.21.94-1.8,3.69-5.66,5.21-7.83-2.34-1.52,1.23-6.35,2.75-6.4,1.27-.04.94,2.34-.08,4.92,1.31-.16,2.71-.82,4.22-1.89Z"/>
    <path class="cls-4" d="M287.11,34.32c3.4.16,6.4-3.12,8.16-5.82.21-.33.53-.33.7.04.16.33.04,1.48-.7,2.54-1.72,2.5-4.88,4.39-8.04,4.43-5.21.08-7.01-5.04-4.35-10.33s6.85-7.42,8.9-6.23c1.02.62,1.76,1.23,2.42,2.13.74.98.41,3.49-1.31,5.58-2.01,2.46-4.76,3.53-7.63,1.19-1.31,3.77-.33,6.35,1.85,6.48ZM290.51,24.89c1.31-1.72,2.21-3.85,1.64-4.31-.86-.7-4.26,1.76-6.19,5.66-.12.25-.25.49-.33.7,2.01,1.27,3.69-.49,4.88-2.05Z"/>
    <path class="cls-4" d="M298.18,34.32c3.4.16,6.4-3.12,8.16-5.82.21-.33.53-.33.7.04.16.33.04,1.48-.7,2.54-1.72,2.5-4.88,4.39-8.04,4.43-5.21.08-7.01-5.04-4.35-10.33s6.85-7.42,8.9-6.23c1.02.62,1.76,1.23,2.42,2.13.74.98.41,3.49-1.31,5.58-2.01,2.46-4.76,3.53-7.63,1.19-1.31,3.77-.33,6.35,1.85,6.48ZM301.58,24.89c1.31-1.72,2.21-3.85,1.64-4.31-.86-.7-4.26,1.76-6.19,5.66-.12.25-.25.49-.33.7,2.01,1.27,3.69-.49,4.88-2.05Z"/>
    <path class="cls-4" d="M306.05,17.83c-.41-.57-.16-.86.45-.82,1.15.04,2.3-.04,3.4-.16,1.27-2.25,2.42-4.18,3.12-5.08.37-.53.78-.49.98,0,.45,1.15.45,2.5-.53,4.63,1.6-.04,2.21.7,2.54,1.23.29.49.12.78-.49.78-.9-.12-2.17,0-3.2.16-1.6,2.75-3.94,6.72-5.49,10.17-1.35,2.99-.9,5.54.82,5.62,1.84.08,4.18-2.83,5.7-5.9.25-.49.7-.57.86,0,.21.66,0,1.39-.41,2.34-.53,1.19-3.24,4.8-6.52,4.67-2.71-.08-4.88-3.12-2.91-7.83.86-2.05,2.58-5.49,4.35-8.73-1.39,0-2.34-.62-2.67-1.07Z"/>
    <path class="cls-4" d="M310.39,29.48c1.02-2.99,3.73-7.83,5.25-9.96.37-.49.66-.62.98-.25.62.66.94,2.42-.04,4.47-.86,1.8-2.58,4.59-3.44,6.64-.98,2.38-.9,3.98.41,3.89,1.84-.08,4.1-2.79,5.33-5.62.21-.37.49-.33.66,0,.33.66.21,1.52-.29,2.54-1.23,2.54-3.81,4.26-6.11,4.26-3.12,0-3.9-2.62-2.75-5.99ZM319.54,18.78c-.53.57-1.68.45-2.3-.62-.66-1.11-.45-2.34.21-3.03.66-.7,1.84-.21,2.38.9.53,1.07.25,2.17-.29,2.75Z"/>
    <path class="cls-4" d="M329.05,18.78c1.35.21,2.62,2.21,1.6,4.35-.86,1.8-2.87,4.84-3.81,6.97-1.07,2.38-.82,4.3.66,4.22,1.68-.08,3.69-2.79,5.25-5.66.2-.37.49-.37.7-.04.29.45.21,1.39-.37,2.58-1.11,2.3-3.69,4.39-6.07,4.39-3.48,0-4.31-2.54-3.12-6.11,1.35-4.02,4.96-8.36,4.22-8.69-.41-.16-2.79.98-5.41,3.85-2.42,2.62-4.22,6.56-5.99,10.41-.16.37-.41.53-.78.16-.82-.82-1.07-2.17-.41-4.22.82-2.58,3.98-8.28,6.56-12.09.29-.45.61-.41.86,0,.62,1.03.57,2.42.12,3.9,1.85-1.97,4.63-4.22,5.99-4.02Z"/>
    <path class="cls-4" d="M339.18,36.53c-2.26,5.49-5.17,12.01-8.49,13.33-.82.33-1.64.21-2.38-.86-.86-1.23-1.6-2.67-.82-5.08,1.19-3.69,4.71-6.19,8.77-7.75.41-.9.78-1.89,1.19-2.83-1.19,1.19-2.62,2.05-4.14,2.05-3.77,0-4.51-5.12-1.19-10.04,3.2-4.76,6.52-6.6,8.61-6.6,1.64,0,2.46,1.27,2.42,2.71.49-.82.94-1.56,1.35-2.25.33-.57.74-.62,1.02-.25.62.74.94,2.5-.08,4.51-1.23,2.46-3.81,7.42-5.53,11.4,3.44-1.72,5.7-3.98,7.34-6.15.25-.33.61-.33.7.08.08.37-.12,1.27-.82,2.38-1.6,2.5-4.55,4.14-7.95,5.37ZM329.13,47.56c.53.78,3.77-3.49,6.44-9.72-5.33,3.12-7.13,8.73-6.44,9.72ZM341.35,20.83c-1.27-.08-4.26,2.54-6.52,6.11-2.21,3.53-2.67,7.13-1.02,7.17,1.6.04,3.69-2.54,5.78-6.15,2.58-4.51,2.95-7.05,1.76-7.13Z"/>
    <path class="cls-4" d="M350.66,21.07c.21-1.6.62-2.38,1.48-3.16.9-.82,1.85-.98,2.21-.61.41.41.21.86-.33,1.8-.16.25-.29.49-.45.78-.29,3.77.49,6.97.37,9.8-.08,1.6-.37,3.32-1.85,4.3,2.75-1.02,4.47-3.48,5.49-5.7.21-.45.62-.33.78,0,.16.37.12,1.43-.57,2.71-1.56,2.83-4.35,4.39-7.26,4.51-2.38.08-4.67-.53-6.07-3.08-.98-1.84-.86-4.55.53-5.7.49-.41.82-.25.86.41.04.33.04.66.08.98,1.68-2.3,3.53-4.96,4.71-7.05ZM346.31,30.34c.61,2.38,1.8,4.06,3.16,3.65,1.89-.57,1.27-7.01,1.11-10.29-1.19,2.17-2.71,4.43-4.26,6.64Z"/>
    <path class="cls-4" d="M368.61,32.39c-.04.37-.04.74-.08,1.15,2.54-1.6,5.08-5.9,6.76-10.7-3.24-1.19.53-6.72,2.25-6.85,1.27-.08.94,2.46.04,5.17,1.44-.16,2.91-.82,4.51-1.93.53-.37.86-.53,1.23-.12.78.9,1.8,2.83.57,4.18-1.97,2.17-3.94,5-4.67,7.09-.78,2.25-.25,3.89,1.02,3.98,1.64.08,3.73-2.58,5.08-5.66.16-.37.41-.41.62,0,.21.45.29,1.48-.21,2.67-1.03,2.46-3.49,4.18-5.74,4.14-3.12-.08-4.35-2.91-3.32-6.19.86-2.75,3.32-5.78,5.08-7.75-1.8,1.11-3.57,1.52-4.88,1.52-1.76,5.04-4.88,10.21-8.57,11.73-.74,4.26-2.71,9.02-4.71,11.52-1.56,1.93-2.83,1.56-3.98.53-1.07-.94-2.13-2.38-1.68-5.86,1.15-9.1,10.54-24.81,15.13-31.61.37-.53.78-.45.98.04.57,1.39.37,3.12-1.39,6.15-1.64,2.79-4.55,7.42-6.72,11.73,2.01.53,2.83,2.13,2.67,5.08ZM363.04,33.66c-2.3,5.45-3.77,10.54-2.83,11.73.9,1.15,3.98-4.51,5.33-10.13-1.19-.12-2.05-.62-2.5-1.6ZM366.15,31.16c.08-1.52-.33-2.79-.66-2.67-.45.16-.86,2.3-.86,3.28,0,1.31.33,2.3,1.15,2.38.21-1.02.33-2.05.37-2.99Z"/>
    <path class="cls-4" d="M421.62,31.24c-1.15,2.26-3.77,4.39-6.11,4.35-3.53-.04-4.76-2.83-3.32-6.15,1.48-3.44,5.12-7.95,4.51-8.2-.33-.12-1.76.41-4.39,3.03-3.36,3.36-5.37,7.26-7.09,11.07-.21.49-.57.62-.94.25-.66-.66-1.15-2.21-.04-5.12,1.31-3.4,5.7-9.02,4.92-9.35-.41-.16-2.46.94-5.08,3.81-2.38,2.58-4.35,6.35-5.99,10.21-.16.33-.37.45-.78.12-.86-.7-1.07-2.09-.41-4.14.41-1.35,1.44-3.44,2.62-5.74-1.15.78-2.38,1.15-3.81,1.02-.82,3.53-3.4,7.79-6.44,8.77-1.48.49-3.57.45-5.21-1.76-1.76-2.38-1.15-5.99.7-9.23,1.56-2.75,4.06-5.17,6.52-5.33,1.27-.08,1.89.29,2.75,1.39.98,1.27,2.21,1.48,1.97,4.51,0,.21,0,.45-.08.66,2.62-.04,5.29-3.08,7.38-6.4.25-.41.66-.41.9,0,.66,1.07.53,2.67-.08,4.26,1.84-2.05,4.84-4.47,6.31-4.43,1.39.04,2.09,2.21,1.6,4.02,1.93-1.85,4.67-3.77,5.99-3.73,1.48.04,1.8,2.46.98,4.43-.78,1.85-2.75,4.55-3.73,6.56-1.15,2.34-.61,4.26.9,4.18,1.64-.08,3.49-2.75,5.04-5.66.21-.37.49-.29.7,0s.21,1.6-.29,2.58ZM390.38,21.89c-1.11.94-2.25,2.34-3.16,3.89-1.8,3.08-2.34,6.81-1.27,7.75,1.11.98,3.61-.53,5.62-4.22.7-1.27,1.19-2.46,1.48-3.53-1.44-.78-2.58-2.3-2.67-3.89ZM393.62,21.89c-.21-1.31-1.07-1.11-1.23.12-.12.86.16,2.05.98,2.75.25-1.19.37-2.13.25-2.87Z"/>
  </g>
  <g>
    <g>
      <path class="cls-6" d="M273.61,127.25h0c-.73-.56-1.73-.77-2.83-.52-20.52,4.73-41.06,9.3-61.67,13.62-2.2.46-4,2.62-4.01,4.83,0,11.01,0,16.52,0,27.54-6.55-5.21-9.82-7.83-16.37-13.11.13.1.38.32.38.32,0,0-.82-.66-1.22-.98-11.17-8.81-27.62-9.09-41.05-6.94-9.53,1.58-19.09,3.04-28.65,4.37-2.01.28-3.67,2.01-3.94,3.99-.91-.78-1.36-1.18-2.27-1.96,0,0,0,0,0,0,0,0,0,0,0,0-.72-.63-1.72-.94-2.82-.8-11.13,1.4-22.25,2.67-33.41,3.82-.07.01-.13.03-.2.04-.01-.01-.02-.02-.03-.03-23.5,2.11-46.91,3.41-70.5,3.77-2.2.02-4,1.82-4,4.02,0,9.81,0,19.63,0,29.44,0,1.31,1.62,3.19,1.62,3.19,0,0-.31-.23-.45-.37,6.85,6.83,10.28,10.2,17.13,16.87,0,24.49-.01,48.98-.02,73.47,0,1.27,1.52,3.07,1.52,3.07,0,0-.24-.18-.35-.28,6.98,6.78,10.47,10.13,17.45,16.75.72.69,1.72,1.08,2.82,1.02,11.09-.69,22.12-1.52,33.19-2.49,2.2-.21,4-2.18,4-4.38,0-3.93,0-5.89,0-9.81,5.05,4.55,7.58,6.81,12.63,11.3.73.64,1.73.98,2.83.85,11.09-1.34,22.13-2.8,33.19-4.37,2.01-.3,3.67-2.05,3.94-4.03.91.77,1.36,1.16,2.27,1.93.72.61,1.72.91,2.82.74,10.36-1.6,20.72-3.34,31.04-5.21,15.69-2.98,31.89-10.54,41.63-23.53.18-.24.34-.49.52-.72,5.96,4.73,8.94,7.08,14.91,11.77.73.57,1.73.8,2.83.57,20.6-4.5,41.14-9.2,61.67-14.02,2.2-.52,4-2.74,4.01-4.94v-29.53c0-1.1-.44-2-1.17-2.55-4.78-3.65-7.17-5.48-11.95-9.14,2.47-.58,3.71-.87,6.19-1.45,2.2-.52,4-2.74,4-4.94,0-11.11,0-16.67,0-27.78,0-1.1-.45-2-1.17-2.55-4.43-3.38-6.65-5.08-11.08-8.47,4.48-1.05,6.72-1.58,11.2-2.63,2.2-.52,4-2.74,4.01-4.94v-28.89c0-1.1-.44-2-1.17-2.55-6.98-5.33-10.47-7.99-17.45-13.35ZM72.98,163.01c-.18.22-.49.7-.49.7l.51-.73s-.01.02-.02.03ZM109.62,159.6s-.05-.01-.07-.01h0s.09.02.09.02c0,0-.01,0-.02,0ZM110.04,159.7s-.12-.05-.12-.05c0,0,.1.05.12.05,0,0,0,0,0,0ZM110.38,159.87s-.07-.06-.12-.08c0,0,0,0,0,0,.05.03.13.09.13.09,0,0,0,0-.01,0ZM176.59,155.35s0,0,0,0c.55.19,1.6.62,1.6.62,0,0-1.06-.43-1.6-.62ZM194.77,172.95s0,0,0,0c.23.36.66,1.09.66,1.09,0,0-.43-.74-.66-1.09ZM195.35,169.93s.23.32.34.49c0,0,0,0,0,0-.11-.16-.34-.49-.34-.49ZM196.21,175.39s0,0,0,0c.24.44.47.9.7,1.35,0,0,0,0,0,0-.23-.45-.45-.91-.7-1.35ZM197.94,169.83c-.07-.11-.21-.33-.21-.33,0,0,.16.23.23.34,0,0-.01,0-.02-.02Z"/>
      <path class="cls-6" d="M660.21,87.56c-6.98-6.85-10.47-10.23-17.45-16.92.15.15.44.4.44.45,0,0-2.04-1.95-3.16-2.82-11.09-8.64-24.72-8.46-38.22-8.07-10.74,1.05-21.43,2.23-32.14,3.52-2.21.28-4,2.31-4.01,4.52,0,9.27,0,13.9,0,23.17-6.66-5.8-9.99-8.67-16.66-14.36.54.46,1.59,1.45,1.59,1.45,0,0-21.45-11.28-33.34-9.13-12.97,2.35-24.53,9.91-32.85,20.05-5.08,6.19-9.15,13.2-12.11,20.94-.71-.67-1.44-1.31-2.19-1.91-6.98-5.56-10.47-8.32-17.45-13.82.54.43,1.59,1.34,1.59,1.34,0,0-21.79-9.83-33.33-7.09-13.04,3.1-24.55,11.14-32.86,21.61-7.79,9.81-13.12,21.49-15.78,33.75,0-8.13,0-12.2,0-20.33,0-1.1-.45-2-1.17-2.55-6.98-5.31-10.47-7.96-17.45-13.26h0c-.73-.55-1.73-.76-2.83-.49-11.06,2.67-22.12,5.34-33.18,8.01-2.2.53-4,2.76-4.01,4.97-.01,40.96-.02,81.92-.04,122.88,0,1.1.45,1.99,1.17,2.54,0,0,0,0,0,0,6.98,5.3,10.47,7.95,17.45,13.25.73.55,1.73.76,2.83.49,19.35-4.68,38.7-9.35,58.09-13.9,2.2-.52,4-2.73,4.01-4.93,0-6.43,0-9.65,0-16.08,3.31,2.54,4.97,3.81,8.28,6.35,9.48,7.33,21.8,9.14,33.28,6.43,15.05-3.56,28.41-13.76,36.42-26.82,2.94-4.79,5.6-9.97,7.63-15.43.28.26.55.54.84.78.41.35,1.27,1.01,1.27,1.01,0,0-.37-.28-.56-.42,6.98,5.62,10.47,8.45,17.45,14.15,9.31,7.66,21.54,10.28,33.28,8.25,14.01-2.42,27.09-10.45,35.09-22.4,5.64,4.93,8.45,7.41,14.09,12.42.72.64,1.73.98,2.83.86,11.06-1.13,22.09-2.12,33.18-2.98,2.2-.16,4.01-2.06,4.01-4.27,0-12.09,0-24.18.01-36.27.47-.03.7-.05,1.17-.08,10.82-.56,22.45-2.97,30.98-9.58,10.86-8.43,16.34-23.07,16.17-36.74-.15-11.68-3.74-23.98-12.39-32.51ZM373.51,195.5c-.49.12-.74.18-1.23.29,0-1.97,0-2.96,0-4.94.37,1.59.77,3.15,1.23,4.64h0ZM373.23,184.87s0,0,0,0c.17,1.04.36,2.06.56,3.06,0,0,0,0,0,0-.2-1-.39-2.02-.56-3.06ZM375.22,193.77s.66,2.12,1.02,3.14c0,0,0,0,0,0l-1.02-3.15ZM378,131.68c-.17.44-.52,1.33-.52,1.33,0,0,.35-.89.52-1.33,0,0,0,0,0,0ZM378.6,130.14s0,0,0,0c.08-.2.25-.59.25-.59,0,0-.17.39-.25.59ZM383.89,119.61c-.16.27-.33.54-.49.81,0,0,0,0,0,0,.16-.27.33-.54.49-.81,0,0,0,0,0,0ZM385.71,116.74c-.07.1-.2.31-.2.31,0,0,.13-.21.2-.31,0,0,0,0,0,0ZM391.06,109.66s0,0,0,0c.08-.1.25-.29.25-.29,0,0-.17.19-.25.28ZM392.67,107.85s0,0,0,0c.02-.03.07-.08.07-.08,0,0-.05.05-.07.08ZM394.99,105.45c-.12.12-.25.23-.37.35-.1.1-.2.21-.3.31,0,0,0,0,0,0,.1-.1.2-.21.3-.31.12-.12.24-.23.37-.35,0,0,0,0,0,0ZM396.02,104.45s0,0,0,0c.06-.06.18-.17.18-.17,0,0-.12.11-.18.17ZM413.69,186.61s.04.06.04.06c0,0-.03-.04-.04-.06h0ZM413.21,185.96c.07.1.14.19.21.29,0,0,0,0,0,0-.07-.1-.14-.19-.21-.29,0,0,0,0,0,0ZM412.95,185.56s0,0,0,0c-.06-.09-.18-.27-.18-.27,0,0,.12.18.18.27ZM397.18,222.93h0c.27.09.82.29.82.29,0,0-.55-.18-.82-.29ZM397.79,102.85s0,0,0,0c.15-.14.46-.41.46-.41,0,0-.31.28-.46.41ZM398.95,223.55s.3.09.45.13c0,0,.01,0,.02.02-.16-.05-.47-.15-.47-.15ZM401.85,219.88c-.33-.09-.66-.19-.98-.29,0,0,0,0,0,0,.33.11.66.2.99.29,0,0,0,0,0,0ZM405.67,220.73c-.29-.05-.87-.15-.87-.15l.88.15s0,0,0,0ZM407.65,220.99c-.36-.04-.71-.07-1.07-.12,0,0,0,0,0,0,.35.05,1.07.12,1.07.12,0,0,0,0,0,0ZM408.39,95.52c-.46.24-.92.5-1.37.76,0,0,0,0,0,0,.46-.26.91-.51,1.37-.76,0,0,0,0,0,0ZM409.66,221.14c-.37-.02-.74-.03-1.1-.06,0,0,0,0,0,0,.37.03,1.11.06,1.11.06,0,0,0,0,0,0ZM409.28,95.06s0,0,0,0c.26-.13.78-.4.78-.4,0,0-.52.27-.78.4ZM411.73,221.18c-.38,0-.77.01-1.14,0,0,0,0,0,0,0,.38,0,1.15,0,1.15,0,0,0,0,0,0,0ZM413.85,221.1c-.4.03-.81.05-1.21.07,0,0,0,0,0,0,.4-.01.81-.04,1.21-.07,0,0,0,0,0,0ZM414.75,221.05s0,0,0,0c.24-.02.71-.08.71-.08,0,0-.48.06-.71.08ZM424.23,90.24c-.19.03-.57.08-.57.08,0,0,.38-.05.57-.08h0ZM426.33,124.79s-.1-.08-.1-.08c0,0,.07.05.1.08h0ZM428.4,89.75s0,0,0,0c.05,0,.16-.01.16-.01,0,0-.1,0-.16.01ZM430.79,158.49c0,.1-.01.29-.01.29l.02-.67s0,.26,0,.39ZM431.57,89.65s-.04,0-.04,0c0,0,.03,0,.04,0,0,0,0,0,0,0ZM475.62,107.1c-.08.19-.26.56-.26.56,0,0,.17-.37.26-.56,0,0,0,0,0,0ZM476.87,104.44c-.14.29-.29.58-.43.88,0,0,0,0,0,0,.14-.3.43-.89.43-.89,0,0,0,0,0,0ZM495.29,202.93s.3.1.45.15c0,0,.01,0,.02.02-.16-.05-.47-.17-.47-.17ZM496.25,200.99s0,0,0,0c.22.08.45.15.68.23h0c-.22-.08-.45-.15-.68-.23ZM606.42,90.66h0c.13,0,.38.02.38.02,0,0-.25-.02-.38-.02ZM608.09,90.8c-.12-.02-.34-.06-.34-.06,0,0,.23.04.34.06t0,0ZM608.79,90.92s0,0,0,0c.05.01.16.04.16.04,0,0-.11-.03-.16-.04ZM610.35,91.41c-.09-.03-.17-.08-.25-.11-.06-.02-.13-.04-.2-.06h0c.07.02.13.04.2.06.09.03.17.08.25.11,0,0,0,0,0,0ZM611.94,92.24s0,0,0,0c.08.05.26.15.26.15,0,0-.17-.1-.26-.15ZM649.37,89.43s0,0,0,0c.11.4.22.79.33,1.2,0,0,0,0,0,0-.1-.4-.21-.8-.33-1.2ZM649.92,91.53s0,0,0,0c.09.41.18.82.26,1.23,0,0,0,0,0,0-.08-.42-.17-.83-.27-1.24ZM650.26,80.69c-.32-.62-1-1.5-1-1.83,0,0,.69,1.22,1.01,1.84,0,0,0,0,0,0ZM650.36,93.69s0,0,0,0c.08.42.14.86.21,1.29,0,0,0,0,0,0,0,0-.13-.87-.21-1.29ZM650.7,95.91s0,0,0,0c.06.45.11.92.15,1.38,0,0,0,0,0,0,0,0-.1-.93-.16-1.39ZM650.95,98.2s0,0,0,0c.04.51.07,1.04.1,1.56,0,0,0,0,0,0,0,0-.06-1.05-.1-1.57ZM651.1,100.55s0,0,0,0c.03.78.05,1.58.05,2.38,0,.01,0,.03,0,.03,0,0-.02-1.62-.05-2.42Z"/>
    </g>
    <g>
      <g class="cls-2">
        <path class="cls-3" d="M5,167.2c6.98,6.93,10.47,10.35,17.45,17.12-1.1.03-2,.96-2,2.07-6.98-6.78-10.47-10.21-17.45-17.16,0-1.11.9-2.01,2-2.02Z"/>
        <path class="cls-3" d="M3.01,169.22c6.98,6.95,10.47,10.38,17.45,17.16v29.44c-6.99-6.78-10.48-10.21-17.46-17.17,0-9.81,0-19.63,0-29.44Z"/>
        <path class="cls-5" d="M5,169.21c6.98,6.93,10.47,10.35,17.45,17.12,0,9.81,0,19.63,0,29.44-6.98-6.76-10.47-10.19-17.45-17.12,0-9.81,0-19.63,0-29.44Z"/>
        <path class="cls-3" d="M21.03,217.22c-6.98-6.78-10.47-10.21-17.45-17.15-.36-.36-.59-.86-.59-1.41,6.98,6.95,10.47,10.38,17.45,17.17,0,.55.22,1.04.59,1.39Z"/>
        <path class="cls-5" d="M21.03,217.22c-6.98-6.78-10.47-10.21-17.45-17.15.36.36.86.58,1.41.58,6.98,6.93,10.47,10.35,17.45,17.12-.55.02-1.05-.19-1.41-.54Z"/>
        <path class="cls-3" d="M19.62,218.67c-6.98-6.79-10.47-10.23-17.45-17.18.72.72,1.72,1.16,2.82,1.16,6.98,6.93,10.47,10.35,17.45,17.12-1.1.03-2.1-.38-2.82-1.09Z"/>
        <path class="cls-7" d="M23.3,198.29c6.98,6.76,10.47,10.09,17.45,16.69-7.32.4-10.98.56-18.3.79-6.98-6.76-10.47-10.19-17.45-17.12,7.32-.05,10.98-.13,18.3-.36Z"/>
        <path class="cls-5" d="M21.3,200.35c6.98,6.77,10.47,10.12,17.45,16.74-6.52.34-9.78.48-16.31.68-6.98-6.76-10.47-10.19-17.45-17.12,6.52-.05,9.78-.11,16.31-.3Z"/>
        <path class="cls-3" d="M19.3,202.4c6.98,6.79,10.47,10.15,17.45,16.78-5.72.29-8.58.4-14.31.58-6.98-6.76-10.47-10.19-17.45-17.12,5.72-.04,8.58-.09,14.31-.24Z"/>
        <path class="cls-3" d="M72.5,163.72c6.98,6.33,10.47,9.46,17.45,15.67-22.48,2.36-44.91,4.04-67.49,4.93-6.98-6.76-10.47-10.19-17.45-17.12,22.57-.36,45-1.55,67.49-3.48Z"/>
        <path class="cls-3" d="M92.7,177.1c-1.07.3-2.14,1.16-2.75,2.28-6.98-6.2-10.47-9.33-17.45-15.67.61-1.1,2.2-2.36,2.75-2.23,1.85.46,5.38,4.85,8.07,7.26,2.69,2.41,5.38,4.81,8.07,7.19.05.04.11.09.15.14.05.04.11.1.16.14.05.04.12.1.17.15.05.05.12.11.17.15.05.05.12.11.17.15.05.04.12.1.17.15.05.04.11.1.16.14.05.04.11.09.15.14Z"/>
        <path class="cls-3" d="M92.7,177.1c-5.82-5.15-17.45-15.61-17.45-15.61,0-.01.17-.04.26-.06,6.98,6.31,10.47,9.43,17.45,15.61-.09.02-.17.04-.26.06Z"/>
        <path class="cls-3" d="M75.96,163.39c6.98,6.31,10.47,9.42,17.45,15.6-1.39.16-2.08.24-3.46.39-6.98-6.2-10.47-9.33-17.45-15.67,1.39-.13,2.08-.19,3.46-.33Z"/>
        <path class="cls-5" d="M92.71,179.14c-5.82-5.15-17.51-15.23-17.45-15.61,0-.01.17-.07.25-.09,6.98,6.31,10.47,9.43,17.45,15.61-.08.02-.17.05-.25.09Z"/>
        <path class="cls-5" d="M73.96,165.59c6.98,6.32,10.47,9.45,17.45,15.64-22.97,2.45-45.88,4.18-68.96,5.1-6.98-6.76-10.47-10.19-17.45-17.12,23.07-.37,45.97-1.61,68.96-3.62Z"/>
        <path class="cls-5" d="M92.71,179.14c-.68.32-1.3,1.17-1.3,2.09-6.98-6.19-10.47-9.32-17.45-15.64,0-.92.98-2.12,1.3-2.07,3.5.54,11.63,10.46,17.45,15.61Z"/>
        <path class="cls-5" d="M75.51,165.44c6.98,6.31,10.47,9.43,17.45,15.61-.62.07-.93.11-1.55.18-6.98-6.19-10.47-9.32-17.45-15.64.62-.06.93-.09,1.55-.15Z"/>
        <path class="cls-7" d="M73.95,195.03c6.98,6.32,10.47,9.45,17.45,15.64-6.99.79-10.48,1.16-17.47,1.82-6.98-6.32-10.47-9.52-17.45-15.98,6.99-.52,10.48-.82,17.47-1.47Z"/>
        <path class="cls-7" d="M56.49,196.51c6.98,6.46,10.47,9.66,17.45,15.98,0,31.14-.02,62.28-.03,93.43-6.98-6.32-10.47-9.52-17.45-15.98,0-31.14.02-62.28.03-93.43Z"/>
        <path class="cls-5" d="M71.94,197.22c6.98,6.34,10.47,9.47,17.45,15.68-5.38.6-8.08.88-13.46,1.4-6.98-6.31-10.47-9.49-17.45-15.94,5.38-.41,8.08-.64,13.46-1.14Z"/>
        <path class="cls-7" d="M75.5,194.88c6.98,6.31,10.47,9.43,17.45,15.61-.62.07-.93.11-1.55.18-6.98-6.19-10.47-9.32-17.45-15.64.62-.06.93-.09,1.55-.15Z"/>
        <path class="cls-7" d="M75.51,165.44c6.98,6.31,10.47,9.43,17.45,15.61,0,9.81,0,19.63,0,29.44-6.98-6.18-10.47-9.3-17.45-15.61,0-9.81,0-19.63,0-29.44Z"/>
        <path class="cls-5" d="M58.48,198.35c6.98,6.45,10.47,9.63,17.45,15.94,0,30.48-.02,60.95-.03,91.43-6.98-6.31-10.47-9.49-17.45-15.94,0-30.48.02-60.95.03-91.43Z"/>
        <path class="cls-3" d="M71.94,199.21c6.98,6.34,10.47,9.47,17.45,15.68-4.59.51-6.88.75-11.46,1.2-6.98-6.29-10.47-9.47-17.45-15.9,4.59-.36,6.88-.56,11.46-.98Z"/>
        <path class="cls-3" d="M71.94,197.22c6.98,6.34,10.47,9.47,17.45,15.68,0,.8,0,1.2,0,2-6.98-6.2-10.47-9.34-17.45-15.68,0-.8,0-1.2,0-2Z"/>
        <path class="cls-5" d="M73.95,195.03c6.98,6.32,10.47,9.45,17.45,15.64,0,.8,0,1.2,0,2-6.98-6.19-10.47-9.32-17.45-15.64,0-.8,0-1.2,0-2Z"/>
        <path class="cls-5" d="M73.95,197.03c6.98,6.32,10.47,9.45,17.45,15.64-.8.09-1.2.14-2.01.23-6.98-6.2-10.47-9.34-17.45-15.68.8-.07,1.2-.11,2.01-.19Z"/>
        <path class="cls-3" d="M109.15,159.6c6.98,6.07,10.47,9.07,17.45,15.02-11.06,1.57-22.1,3.03-33.19,4.37-6.98-6.18-10.47-9.29-17.45-15.6,11.09-1.14,22.13-2.41,33.19-3.79Z"/>
        <path class="cls-3" d="M110.55,160c6.98,6.06,10.47,9.05,17.45,15-.36-.31-.86-.46-1.41-.38-6.98-5.95-10.47-8.95-17.45-15.02.55-.07,1.05.09,1.41.4Z"/>
        <path class="cls-5" d="M109.15,161.6c6.98,6.07,10.47,9.07,17.45,15.02-11.06,1.57-22.1,3.03-33.19,4.37-6.98-6.18-10.47-9.29-17.45-15.6,11.09-1.14,22.13-2.41,33.19-3.79Z"/>
        <path class="cls-5" d="M110.55,160c6.98,6.06,10.47,9.05,17.45,15,.36.31.59.78.59,1.33-6.98-5.94-10.47-8.94-17.45-14.99,0-.55-.23-1.03-.59-1.34Z"/>
        <path class="cls-3" d="M111.97,158.4c6.98,6.05,10.47,9.04,17.45,14.97.73.62,1.18,1.55,1.17,2.66-6.98-5.93-10.47-8.92-17.45-14.96,0-1.1-.45-2.05-1.17-2.68Z"/>
        <path class="cls-3" d="M21.3,200.35c6.98,6.77,10.47,10.12,17.45,16.74,0,30.48-.02,60.95-.03,91.43-6.98-6.62-10.47-9.96-17.45-16.74,0-30.48.02-60.95.03-91.43Z"/>
        <path class="cls-3" d="M39.31,309.89c-6.98-6.61-10.47-9.95-17.45-16.72-.36-.35-.59-.84-.59-1.39,6.98,6.77,10.47,10.12,17.45,16.74,0,.55.22,1.04.59,1.38Z"/>
        <path class="cls-5" d="M23.3,198.29c6.98,6.76,10.47,10.09,17.45,16.69,0,31.14-.02,62.28-.03,93.43-6.98-6.6-10.47-9.93-17.45-16.69,0-31.14.02-62.28.03-93.42Z"/>
        <path class="cls-5" d="M39.31,309.89c-6.98-6.61-10.47-9.95-17.45-16.72.36.35.86.56,1.41.54,6.98,6.76,10.47,10.09,17.45,16.69-.55.03-1.05-.17-1.41-.51Z"/>
        <path class="cls-3" d="M37.89,311.38c-6.98-6.62-10.47-9.97-17.45-16.75.72.7,1.72,1.12,2.82,1.09,6.98,6.76,10.47,10.09,17.45,16.69-1.1.06-2.1-.33-2.82-1.02Z"/>
        <path class="cls-7" d="M75.51,165.44c0,9.81,0,19.63,0,29.44-.62.06-.93.09-1.55.15-6.99.66-10.48.96-17.47,1.47,0,31.14-.02,62.28-.03,93.43-11.07.74-22.1,1.34-33.19,1.78,0-31.14.02-62.28.03-93.42-7.32.24-10.98.31-18.3.36,0-9.81,0-19.63,0-29.44,23.07-.37,45.97-1.61,68.96-3.62.62-.06.93-.09,1.55-.15Z"/>
        <path class="cls-7" d="M56.46,289.93c6.98,6.46,10.47,9.66,17.45,15.98-11.07.97-22.1,1.8-33.19,2.49-6.98-6.6-10.47-9.93-17.45-16.69,11.09-.44,22.12-1.03,33.19-1.78Z"/>
        <path class="cls-5" d="M56.46,291.93c6.98,6.46,10.47,9.66,17.45,15.98-11.07.97-22.1,1.8-33.19,2.49-6.98-6.6-10.47-9.93-17.45-16.69,11.09-.44,22.12-1.03,33.19-1.78Z"/>
        <path class="cls-5" d="M58.45,289.78c6.98,6.45,10.47,9.63,17.45,15.94,0,1.1-.89,2.08-2,2.19-6.98-6.32-10.47-9.52-17.45-15.98,1.11-.08,2-1.05,2-2.15Z"/>
        <path class="cls-3" d="M60.48,200.2c6.98,6.43,10.47,9.61,17.45,15.9,0,29.81-.02,59.62-.03,89.43-6.98-6.29-10.47-9.47-17.45-15.9,0-29.81.02-59.62.03-89.43Z"/>
        <path class="cls-3" d="M73.95,197.03c6.98,6.32,10.47,9.45,17.45,15.64,0,30.48-.02,60.95-.03,91.43-6.98-6.19-10.47-9.32-17.45-15.64,0-30.48.02-60.95.03-91.43Z"/>
        <path class="cls-5" d="M75.96,165.4c6.98,6.31,10.47,9.42,17.45,15.6-.01,40.96-.02,81.91-.04,122.87-6.98-6.18-10.47-9.29-17.45-15.6.01-40.96.02-81.91.04-122.87Z"/>
        <path class="cls-3" d="M91.96,305.44c-6.98-6.19-10.47-9.31-17.45-15.63-.36-.33-.59-.81-.59-1.36,6.98,6.32,10.47,9.45,17.45,15.64,0,.55.22,1.03.59,1.35Z"/>
        <path class="cls-7" d="M109.11,284.48c6.98,6.07,10.47,9.07,17.45,15.02-11.06,1.57-22.1,3.03-33.19,4.37-6.98-6.18-10.47-9.29-17.45-15.6,11.09-1.14,22.13-2.41,33.19-3.79Z"/>
        <path class="cls-7" d="M109.15,161.6c6.98,6.07,10.47,9.07,17.45,15.02-.01,40.96-.02,81.92-.04,122.87-6.98-5.95-10.47-8.95-17.45-15.02.01-40.96.02-81.91.04-122.87Z"/>
        <path class="cls-5" d="M91.96,305.44c-6.98-6.19-10.47-9.31-17.45-15.63.36.33.86.5,1.41.45,6.98,6.31,10.47,9.43,17.45,15.6-.55.06-1.05-.1-1.41-.42Z"/>
        <path class="cls-3" d="M90.54,307.01c-6.98-6.2-10.47-9.33-17.45-15.65.73.66,1.73,1.01,2.83.91,6.98,6.31,10.47,9.43,17.45,15.6-1.1.13-2.11-.21-2.83-.85Z"/>
        <path class="cls-5" d="M109.11,286.47c6.98,6.07,10.47,9.07,17.45,15.02-11.06,1.57-22.1,3.03-33.19,4.37-6.98-6.18-10.47-9.29-17.45-15.6,11.09-1.14,22.13-2.41,33.19-3.79Z"/>
        <path class="cls-5" d="M111.14,161.34c6.98,6.05,10.47,9.05,17.45,14.99-.01,40.96-.02,81.92-.04,122.87-6.98-5.94-10.47-8.94-17.45-14.99.01-40.96.02-81.91.04-122.87Z"/>
        <path class="cls-5" d="M111.11,284.21c6.98,6.05,10.47,9.05,17.45,14.99,0,1.1-.9,2.13-2,2.29-6.98-5.95-10.47-8.95-17.45-15.02,1.1-.14,2-1.16,2-2.26Z"/>
        <path class="cls-3" d="M109.15,157.6c2.2-.29,3.99,1.27,3.99,3.47-.01,40.96-.02,81.91-.04,122.87,0,2.2-1.79,4.24-4,4.53-11.06,1.39-22.1,2.65-33.19,3.79-2.2.21-4-1.41-4-3.62,0-29.81.02-59.62.03-89.43,0-.8,0-1.2,0-2,.8-.07,1.2-.11,2.01-.19,0,30.48-.02,60.95-.03,91.43,0,1.1.89,1.91,2,1.81,11.09-1.14,22.13-2.41,33.19-3.79,1.1-.14,2-1.16,2-2.26.01-40.96.02-81.91.04-122.87,0-1.11-.9-1.89-2-1.74-11.06,1.39-22.1,2.65-33.19,3.79-1.39.13-2.08.2-3.46.33.66-1.19,1.86-2.09,3.24-2.3,11.16-1.15,22.28-2.42,33.41-3.82Z"/>
        <path class="cls-5" d="M109.15,159.6c1.1-.14,2,.64,2,1.74-.01,40.96-.02,81.91-.04,122.87,0,1.1-.9,2.12-2,2.26-11.06,1.39-22.1,2.65-33.19,3.79-1.11.11-2-.71-2-1.81,0-30.48.02-60.95.03-91.43,0-.8,0-1.2,0-2,.62-.06.93-.09,1.55-.15v-29.44c-.61.06-.92.09-1.54.15,0-1.03.77-1.95,1.77-2.16,11.16-1.15,22.28-2.43,33.41-3.83ZM109.11,284.48c.01-40.96.02-81.91.04-122.87-11.06,1.39-22.1,2.65-33.19,3.79-.01,40.96-.02,81.91-.04,122.87,11.09-1.14,22.13-2.41,33.19-3.79"/>
        <path class="cls-5" d="M75.51,163.43c-.78.2-1.55,1.12-1.55,2.15-22.98,2-45.89,3.25-68.96,3.62,0,9.81,0,19.63,0,29.44,7.32-.05,10.98-.13,18.3-.36,0,31.14-.02,62.28-.03,93.42,11.09-.44,22.12-1.03,33.19-1.78,0-31.14.02-62.28.03-93.43,6.99-.52,10.48-.82,17.47-1.47,0,.8,0,1.2,0,2-.8.08-1.2.11-2.01.19-5.38.5-8.08.72-13.46,1.14,0,30.48-.02,60.95-.03,91.43,0,1.1-.89,2.07-2,2.15-11.07.74-22.1,1.34-33.19,1.78-1.1.04-2-.84-2-1.94,0-30.48.02-60.95.03-91.43-6.52.19-9.78.25-16.31.3-1.1,0-2-.89-2-1.99,0-9.81,0-19.63,0-29.44,0-1.11.9-2.01,2-2.02,22.57-.36,45-1.55,67.49-3.48,1.21-.11,1.81-.17,3.01-.28Z"/>
        <path class="cls-1" d="M56.46,293.93c6.98,6.46,10.47,9.66,17.45,15.98-11.07.97-22.1,1.8-33.19,2.49-6.98-6.6-10.47-9.93-17.45-16.69,11.09-.44,22.12-1.03,33.19-1.78Z"/>
        <path class="cls-3" d="M75.51,161.44c-1.16.19-2.35,1.09-3.01,2.28-22.49,1.93-44.92,3.12-67.49,3.48-1.1,0-2,.91-2,2.02,0,9.81,0,19.63,0,29.44,0,1.1.9,1.99,2,1.99,6.52-.05,9.78-.11,16.31-.3,0,30.48-.02,60.95-.03,91.43,0,1.1.9,1.97,2,1.94,11.09-.44,22.12-1.03,33.19-1.78,1.11-.08,2-1.05,2-2.15,0-30.48.02-60.95.03-91.43,5.38-.41,8.08-.64,13.46-1.14,0,.8,0,1.2,0,2-4.59.42-6.88.62-11.46.98,0,29.81-.02,59.62-.03,89.43,0,2.2-1.79,4.14-4,4.3-11.07.74-22.1,1.34-33.19,1.78-2.2.07-3.99-1.67-3.99-3.88,0-29.81.02-59.62.03-89.43-5.72.15-8.58.2-14.31.24-2.2.02-3.99-1.77-3.99-3.98,0-9.81,0-19.63,0-29.44,0-2.2,1.79-4.01,4-4.02,23.59-.35,47.01-1.66,70.5-3.77Z"/>
        <path class="cls-3" d="M60.45,289.63c6.98,6.43,10.47,9.61,17.45,15.9,0,2.2-1.79,4.17-4,4.38-6.98-6.32-10.47-9.52-17.45-15.98,2.2-.16,4-2.1,4-4.3Z"/>
        <path class="cls-7" d="M109.15,161.6c-.01,40.96-.02,81.91-.04,122.87-11.06,1.39-22.1,2.65-33.19,3.79.01-40.96.02-81.91.04-122.87,11.09-1.14,22.13-2.41,33.19-3.79Z"/>
        <path class="cls-1" d="M109.11,288.47c6.98,6.07,10.47,9.07,17.45,15.02-11.06,1.57-22.1,3.03-33.19,4.37-6.98-6.18-10.47-9.29-17.45-15.6,11.09-1.14,22.13-2.41,33.19-3.79Z"/>
        <path class="cls-3" d="M113.14,161.07c6.98,6.04,10.47,9.03,17.45,14.96-.01,40.96-.02,81.92-.04,122.87-6.98-5.93-10.47-8.92-17.45-14.96.01-40.96.02-81.91.04-122.87Z"/>
        <path class="cls-3" d="M113.1,283.94c6.98,6.04,10.47,9.03,17.45,14.96,0,2.2-1.79,4.27-4,4.59-6.98-5.95-10.47-8.95-17.45-15.02,2.2-.29,4-2.32,4-4.53Z"/>
      </g>
      <g class="cls-2">
        <path class="cls-3" d="M146.83,154c6.98,5.83,10.47,8.72,17.45,14.46-9.53,1.71-19.08,3.31-28.65,4.79-6.98-5.9-10.47-8.87-17.45-14.88,9.57-1.33,19.12-2.79,28.65-4.37Z"/>
        <path class="cls-3" d="M135.63,173.25c-1.11.17-2,1.21-2,2.32-2.91-2.46-5.82-4.94-8.73-7.42-.26-.22-.6-.51-.86-.73-.85-.73-1.7-1.46-2.55-2.19-.25-.22-.59-.5-.84-.72-.25-.21-.58-.5-.83-.71-.24-.21-.57-.49-.81-.7-.24-.21-.8-.35-.8-.69-.81-.7-1.22-1.05-2.04-1.75,0-1.11.89-2.13,2-2.28,5.23,4.5,12.21,10.45,17.45,14.88Z"/>
        <path class="cls-5" d="M146.83,156.01c6.98,5.83,10.47,8.72,17.45,14.46-9.53,1.71-19.08,3.31-28.65,4.79-6.98-5.9-10.47-8.87-17.45-14.88,9.57-1.33,19.12-2.79,28.65-4.37Z"/>
        <path class="cls-3" d="M180.43,167.14c-4.96-.15-10.34.29-16.14,1.33-6.98-5.74-10.47-8.63-17.45-14.46,5.8-.96,13-2.32,16.14-1.12,4.8,1.84,11.63,9.54,17.45,14.25Z"/>
        <path class="cls-3" d="M180.43,167.14c-.14-.05-.26-.21-.38-.31-.97-.79-1.94-1.58-2.91-2.37-1.1-.89-2.19-1.78-3.29-2.68-3.62-2.95-10.87-8.9-10.87-8.9.09-.24,10.43.7,13.54,2.43,4.07,2.27,8.75,7.1,13.13,10.62.15.12.35.28.5.41.16.13.37.3.54.43.17.13.39.31.56.45.17.14.4.32.57.45.17.14.4.32.57.45.17.13.39.31.56.45.16.13.37.3.54.43.15.12.51.41.51.41-.03.06-8.59-2.12-13.54-2.27Z"/>
        <path class="cls-7" d="M152.39,185.71c6.98,5.8,10.47,8.68,17.45,14.39-.41.08-.62.11-1.03.19-6.98-5.71-10.47-8.59-17.45-14.4.41-.07.62-.1,1.03-.17Z"/>
        <path class="cls-5" d="M195.03,172.09c-9.91-4.12-20.46-2.77-30.75-1.63-6.98-5.74-10.47-8.63-17.45-14.46,10.31-1.01,22.83-2.78,30.75,2,.58.35,1.43,1.16,2.04,1.65.65.53,1.51,1.23,2.16,1.75.67.54,1.57,1.27,2.24,1.81.69.55,1.6,1.29,2.28,1.84.69.55,1.6,1.29,2.28,1.84.67.54,1.57,1.26,2.24,1.8.65.52,1.51,1.22,2.16,1.74.61.49,1.43,1.14,2.04,1.63Z"/>
        <path class="cls-7" d="M161.14,187.9c6.98,5.75,10.47,8.61,17.45,14.27-2.46-2-5.38-2.69-8.75-2.07-6.98-5.71-10.47-8.58-17.45-14.39,3.37-.57,6.29.16,8.75,2.18Z"/>
        <path class="cls-7" d="M151.36,185.89c6.98,5.81,10.47,8.68,17.45,14.4,0,20.85-.01,41.7-.02,62.55-6.98-5.71-10.47-8.59-17.45-14.4,0-20.85.01-41.7.02-62.55Z"/>
        <path class="cls-5" d="M159.73,189.57c6.98,5.76,10.47,8.62,17.45,14.29-1.85-1.5-3.96-2.12-6.38-1.89-6.98-5.7-10.47-8.58-17.45-14.37,2.42-.2,4.53.45,6.38,1.97Z"/>
        <path class="cls-5" d="M153.35,187.59c6.98,5.8,10.47,8.67,17.45,14.37l-.02,58.29c-6.98-5.7-10.47-8.58-17.45-14.37,0-19.43.01-38.86.02-58.29Z"/>
        <path class="cls-3" d="M158.31,191.21c6.98,5.77,10.47,8.63,17.45,14.31-.91-.74-1.9-1.22-2.96-1.43-6.98-5.69-10.47-8.56-17.45-14.35,1.07.23,2.05.72,2.96,1.47Z"/>
        <path class="cls-3" d="M193.97,169.41c-.17-.09-.35-.28-.51-.41-.46-.37-.92-.73-1.37-1.1-.09-.07-.2-.16-.28-.23-.72-.58-1.44-1.16-2.16-1.74-4.38-3.52-13.13-10.62-13.13-10.62.03-.05,7.03,3.06,9.98,5.34.28.21.55.43.82.65,6.98,5.63,10.47,8.42,17.45,13.97-.27-.22-.55-.43-.82-.64-2.95-2.25-6.28-3.99-9.98-5.23Z"/>
        <path class="cls-5" d="M202.55,176.36c-2.28-1.74-5.35-2.99-7.52-4.27-5.5-3.22-17.45-14.08-17.45-14.08.02-.03,5.24,2.59,7.52,4.35.27.21.55.42.81.64,6.98,5.63,10.47,8.43,17.45,13.99-.27-.21-.54-.42-.81-.63Z"/>
        <path class="cls-3" d="M209.11,142.35c6.98,5.54,10.47,8.29,17.45,13.76-1.11.24-2.01,1.33-2.01,2.44-6.98-5.48-10.47-8.24-17.45-13.78,0-1.11.9-2.19,2.01-2.42Z"/>
        <path class="cls-3" d="M116.18,160.66c6.98,6.02,10.47,9,17.45,14.91-.01,40.96-.02,81.92-.04,122.87-6.98-5.91-10.47-8.89-17.45-14.91.01-40.96.02-81.91.04-122.87Z"/>
        <path class="cls-5" d="M118.18,160.38c6.98,6.01,10.47,8.98,17.45,14.88-.01,40.96-.02,81.92-.04,122.87-6.98-5.9-10.47-8.87-17.45-14.88.01-40.96.02-81.91.04-122.87Z"/>
        <path class="cls-3" d="M134.18,299.76c-6.98-5.91-10.47-8.88-17.45-14.9-.36-.31-.59-.78-.59-1.33,6.98,6.02,10.47,9,17.45,14.91,0,.55.22,1.02.59,1.32Z"/>
        <path class="cls-5" d="M134.18,299.76c-6.98-5.91-10.47-8.88-17.45-14.9.36.31.86.47,1.41.39,6.98,6.01,10.47,8.98,17.45,14.88-.55.09-1.05-.06-1.41-.37Z"/>
        <path class="cls-3" d="M155.35,189.73c6.98,5.78,10.47,8.65,17.45,14.35,0,17.73-.01,35.46-.02,53.18-6.98-5.69-10.47-8.56-17.45-14.35l.02-53.18Z"/>
        <path class="cls-3" d="M132.77,301.39c-6.98-5.91-10.47-8.9-17.45-14.92.72.62,1.72.93,2.82.78,6.98,6.01,10.47,8.98,17.45,14.88-1.1.17-2.1-.12-2.82-.74Z"/>
        <path class="cls-7" d="M185.91,163c6.98,5.63,10.47,8.43,17.45,13.99,13.57,11.45,16.16,27.18,17.16,43.92.08,17.47-4.07,36.44-15.21,50.37-9.01,12.3-24.15,18.88-38.68,21.62-6.98-5.73-10.47-8.61-17.45-14.43,14.49-2.55,29.66-8.95,38.68-21.16,11.17-13.86,15.29-32.81,15.21-50.22-1-16.8-3.62-32.54-17.16-44.1Z"/>
        <path class="cls-7" d="M149.18,278.49c6.98,5.82,10.47,8.7,17.45,14.43-10.32,1.87-20.67,3.61-31.04,5.21-6.98-5.9-10.47-8.87-17.45-14.88,10.36-1.43,20.72-3.03,31.04-4.76Z"/>
        <path class="cls-5" d="M187.32,161.3c6.98,5.63,10.47,8.42,17.45,13.97,13.97,11.78,16.71,27.97,17.75,45.22.07,17.98-4.28,37.51-15.74,51.85-9.36,12.77-25.06,19.71-40.16,22.57-6.98-5.73-10.47-8.61-17.45-14.43,15.06-2.66,30.79-9.41,40.16-22.1,11.48-14.26,15.81-33.77,15.74-51.69-1.05-17.3-3.82-33.5-17.75-45.39Z"/>
        <path class="cls-3" d="M188.72,159.61c6.98,5.62,10.47,8.41,17.45,13.96,9.27,6.9,12.89,16.99,16.37,27.43-6.98-5.49-10.47-8.25-17.45-13.8-3.48-10.49-7.12-20.61-16.37-27.59Z"/>
        <path class="cls-3" d="M159.73,189.57c6.98,5.76,10.47,8.62,17.45,14.29,1.15.93,2.2,2.21,3.15,3.83,2.85,4.81,4.3,12.04,4.29,21.48.52,11.21-2.19,26.31-13.84,31.09-6.98-5.7-10.47-8.58-17.45-14.37,11.68-4.63,14.36-19.77,13.84-30.91,0-9.44-1.44-16.68-4.29-21.53-.95-1.63-2-2.92-3.15-3.87Z"/>
        <path class="cls-5" d="M186.62,228.78c.23,13.24-3.03,30.22-17.84,34.06-6.98-5.71-10.47-8.59-17.45-14.4,5.94-1.29,12.48-10.26,13.37-10.44,1.66-.33,17.45,14.23,17.45,14.23,0,0-16.96-11.8-17.45-14.23-.47-2.3,4.47-23.4,4.47-23.4.65-.31,17.45,14.17,17.45,14.17,0,0-15.64-10.37-17.45-14.18-1.2-2.54-1.13-12.97-1.13-12.97.04-.02,1.43,1.17,2.04,1.67.65.53,1.51,1.24,2.16,1.77.67.55,1.57,1.28,2.24,1.83.68.56,1.6,1.3,2.28,1.86.68.56,1.6,1.3,2.28,1.85.67.55,1.57,1.27,2.24,1.82.65.53,1.51,1.22,2.16,1.75.61.49,1.43,1.15,2.04,1.65h0c-5.82-4.7-14.89-9.94-17.45-14.19-1.31-2.17-1.89-6.89-3.4-9.46,5.82,4.78,17.45,14.23,17.45,14.23,0,0-13.43-9.51-17.45-14.23-1.1-1.3-2.21-3.21-3.5-4.28,6.98,5.75,10.47,8.61,17.45,14.27,1.29,1.05,2.46,2.46,3.5,4.24,3.02,5.1,4.53,12.56,4.53,22.37Z"/>
        <path class="cls-3" d="M153.35,187.59c3.92-.32,7.04,1.6,9.53,5.84,2.84,4.85,4.08,12.31,4.29,21.53.25,10.89-2.16,26.28-13.84,30.91,0-19.43.01-38.86.02-58.29ZM155.34,242.92c8.84-5.56,9.97-18.34,9.83-27.59-.13-8.97-1.38-16.06-4.06-20.64-1.66-2.84-3.52-4.47-5.76-4.95l-.02,53.18"/>
        <path class="cls-5" d="M152.39,185.71c5.15-.87,9.23,1.3,12.25,6.46,3.01,5.13,4.44,12.7,4.53,22.43.11,13.04-3,30.19-17.84,33.84,0-20.85.01-41.7.02-62.55.41-.07.62-.1,1.03-.17ZM153.34,245.88c11.68-4.63,14.09-20.02,13.84-30.91-.21-9.22-1.46-16.69-4.29-21.53-2.49-4.25-5.6-6.17-9.53-5.84,0,19.43-.01,38.86-.02,58.29"/>
        <path class="cls-3" d="M270.78,128.73c6.98,5.36,10.47,8.03,17.45,13.36-20.52,4.83-41.07,9.53-61.67,14.03-6.98-5.48-10.47-8.23-17.45-13.76,20.61-4.32,41.15-8.89,61.67-13.62Z"/>
        <path class="cls-3" d="M272.19,128.98c6.98,5.36,10.47,8.03,17.45,13.35-.36-.28-.86-.38-1.41-.25-6.98-5.33-10.47-8-17.45-13.36.55-.13,1.05-.02,1.41.26Z"/>
        <path class="cls-5" d="M270.78,130.73c6.98,5.36,10.47,8.03,17.45,13.36-20.52,4.83-41.07,9.53-61.67,14.03-6.98-5.48-10.47-8.23-17.45-13.76,20.61-4.32,41.15-8.89,61.67-13.62Z"/>
        <path class="cls-5" d="M272.19,128.98c6.98,5.36,10.47,8.03,17.45,13.35.36.28.59.73.59,1.28-6.98-5.33-10.47-8-17.45-13.35,0-.56-.22-1.01-.59-1.29Z"/>
        <path class="cls-5" d="M149.18,280.49c6.98,5.82,10.47,8.7,17.45,14.43-10.32,1.87-20.67,3.61-31.04,5.21-6.98-5.9-10.47-8.87-17.45-14.88,10.36-1.43,20.72-3.03,31.04-4.76Z"/>
        <path class="cls-3" d="M273.61,127.25c6.98,5.35,10.47,8.02,17.45,13.35.73.55,1.18,1.45,1.17,2.55-6.98-5.32-10.47-7.99-17.45-13.34,0-1.1-.45-2-1.17-2.56Z"/>
        <path class="cls-1" d="M149.18,282.48c6.98,5.82,10.47,8.7,17.45,14.43-10.32,1.87-20.67,3.61-31.04,5.21-6.98-5.9-10.47-8.87-17.45-14.88,10.36-1.43,20.72-3.03,31.04-4.76Z"/>
        <path class="cls-3" d="M205.09,187.2c6.98,5.55,10.47,8.31,17.45,13.8,0,13.37,0,26.74-.01,40.1-6.98-5.49-10.47-8.25-17.45-13.8,0-13.37,0-26.74.01-40.1Z"/>
        <path class="cls-7" d="M242.28,166.11c6.98,5.43,10.47,8.13,17.45,13.51,0,7.16,0,10.74,0,17.9-6.98-5.38-10.47-8.08-17.45-13.51,0-7.16,0-10.74,0-17.9Z"/>
        <path class="cls-7" d="M270.77,159.62c6.98,5.36,10.47,8.03,17.45,13.36-9.49,2.25-18.98,4.46-28.49,6.64-6.98-5.38-10.47-8.08-17.45-13.51,9.51-2.11,19-4.28,28.49-6.49Z"/>
        <path class="cls-5" d="M244.29,167.66c6.98,5.42,10.47,8.12,17.45,13.5,0,5.56,0,8.34,0,13.9-6.98-5.38-10.47-8.08-17.45-13.5,0-5.56,0-8.34,0-13.9Z"/>
        <path class="cls-3" d="M246.28,169.21c6.98,5.42,10.47,8.11,17.45,13.49,0,3.96,0,5.94,0,9.91-6.98-5.37-10.47-8.07-17.45-13.49,0-3.96,0-5.94,0-9.91Z"/>
        <path class="cls-7" d="M185.1,162.36c14.17,11.5,17.43,28.02,17.97,44.73.55,16.91-4.57,36.44-15.21,50.22-9.08,11.76-24.19,18.62-38.68,21.16-10.32,1.73-20.67,3.33-31.04,4.76.01-40.96.02-81.91.04-122.87,9.57-1.33,19.12-2.79,28.65-4.37,13.49-1.32,26.75-2.26,38.27,6.36ZM151.34,248.44c14.83-3.64,17.95-20.8,17.84-33.84-.09-9.73-1.52-17.29-4.53-22.43-3.03-5.17-7.11-7.33-12.25-6.46-.41.07-.62.1-1.03.17,0,20.85-.01,41.7-.02,62.55"/>
        <path class="cls-7" d="M270.78,130.73c6.98,5.36,10.47,8.03,17.45,13.36,0,9.63,0,19.26,0,28.89-6.98-5.33-10.47-8-17.45-13.36,0-9.63,0-19.26,0-28.89Z"/>
        <path class="cls-5" d="M186.49,160.66c14.57,11.84,18.01,28.85,18.58,46.04.57,17.39-4.79,37.5-15.74,51.69-9.43,12.22-25.09,19.44-40.16,22.1-10.32,1.73-20.67,3.33-31.04,4.76-1.11.15-2-.62-2-1.72.01-40.96.02-81.91.04-122.87,0-1.11.89-2.13,2-2.28,9.57-1.33,19.12-2.79,28.65-4.37,13.99-1.36,27.72-2.26,39.66,6.65ZM187.86,257.32c11.17-13.86,15.77-33.31,15.21-50.22-.55-16.72-3.86-33.73-17.97-44.73-11.12-8.67-24.78-7.68-38.27-6.36-9.53,1.58-19.09,3.04-28.65,4.37-.01,40.96-.02,81.91-.04,122.87,10.36-1.43,20.72-3.03,31.04-4.76,14.49-2.55,29.66-8.95,38.68-21.16"/>
        <path class="cls-5" d="M270.77,161.62c6.98,5.36,10.47,8.03,17.45,13.36-10.59,2.51-15.89,3.75-26.48,6.18-6.98-5.38-10.47-8.08-17.45-13.5,10.59-2.37,15.89-3.58,26.48-6.04Z"/>
        <path class="cls-5" d="M272.78,130.27c6.98,5.36,10.47,8.02,17.45,13.35,0,9.63,0,19.26,0,28.89-6.98-5.33-10.47-8-17.45-13.35,0-9.63,0-19.26,0-28.89Z"/>
        <path class="cls-5" d="M272.77,159.16c6.98,5.36,10.47,8.02,17.45,13.35,0,1.1-.89,2.21-2,2.47-6.98-5.33-10.47-8-17.45-13.36,1.11-.26,2-1.36,2-2.46Z"/>
        <path class="cls-3" d="M187.88,158.95c9.04,6.94,14.79,17.21,17.21,28.25,0,13.37,0,26.74-.01,40.1-2.3,11.61-7.21,22.77-14.27,32.13-9.75,12.92-25.98,20.28-41.63,23.04-10.32,1.73-20.67,3.33-31.04,4.76-2.2.31-3.99-1.24-3.99-3.44.01-40.96.02-81.91.04-122.87,0-2.2,1.79-4.25,4-4.56,9.57-1.33,19.12-2.79,28.65-4.37,13.43-2.15,29.84-2.14,41.05,6.94ZM189.33,258.39c11.48-14.26,16.31-34.3,15.74-51.69-.57-17.19-4.07-34.74-18.58-46.04-11.51-8.97-25.67-8.01-39.66-6.65-9.53,1.58-19.09,3.04-28.65,4.37-1.11.15-2,1.18-2,2.28-.01,40.96-.02,81.91-.04,122.87,0,1.1.89,1.88,2,1.72,10.36-1.43,20.72-3.03,31.04-4.76,15.06-2.66,30.79-9.41,40.16-22.1"/>
        <path class="cls-3" d="M205.08,227.3c6.98,5.55,10.47,8.31,17.45,13.8-2.3,11.65-7.03,22.82-14.27,32.27-9.7,13.27-25.94,20.55-41.63,23.53-6.98-5.73-10.47-8.61-17.45-14.43,15.66-2.77,31.92-9.86,41.63-23.04,7.25-9.39,11.98-20.52,14.27-32.13Z"/>
        <path class="cls-3" d="M270.77,163.62c6.98,5.36,10.47,8.03,17.45,13.36-9.79,2.32-14.69,3.46-24.49,5.72-6.98-5.37-10.47-8.07-17.45-13.49,9.79-2.19,14.69-3.32,24.49-5.59Z"/>
        <path class="cls-3" d="M274.78,129.8c6.98,5.35,10.47,8.02,17.45,13.34,0,9.63,0,19.26,0,28.89-6.98-5.32-10.47-7.99-17.45-13.34,0-9.63,0-19.26,0-28.89Z"/>
        <path class="cls-3" d="M274.77,158.69c6.98,5.35,10.47,8.02,17.45,13.34,0,2.2-1.8,4.42-4.01,4.94-6.98-5.33-10.47-8-17.45-13.36,2.2-.51,4-2.72,4.01-4.93Z"/>
        <path class="cls-3" d="M267.82,176.2c6.98,5.37,10.47,8.04,17.45,13.37-9.42,2.22-14.12,3.32-23.54,5.48-6.98-5.38-10.47-8.08-17.45-13.5,9.42-2.1,14.12-3.18,23.54-5.36Z"/>
        <path class="cls-3" d="M269.23,176.46c6.98,5.36,10.47,8.03,17.45,13.37-.36-.28-.86-.38-1.41-.25-6.98-5.33-10.47-8.01-17.45-13.37.55-.13,1.05-.02,1.41.26Z"/>
        <path class="cls-5" d="M267.82,178.2c6.98,5.37,10.47,8.04,17.45,13.37-10.22,2.41-15.33,3.6-25.55,5.94-6.98-5.38-10.47-8.08-17.45-13.51,10.22-2.27,15.33-3.44,25.55-5.8Z"/>
        <path class="cls-5" d="M269.23,176.46c6.98,5.36,10.47,8.03,17.45,13.37.36.28.59.72.59,1.27-6.98-5.33-10.47-8-17.45-13.36,0-.55-.22-1-.59-1.28Z"/>
        <path class="cls-3" d="M270.65,174.72c6.98,5.36,10.47,8.03,17.45,13.36.72.55,1.17,1.45,1.17,2.55-6.98-5.33-10.47-8-17.45-13.36,0-1.1-.45-2-1.17-2.55Z"/>
        <path class="cls-3" d="M207.1,144.77c6.98,5.55,10.47,8.3,17.45,13.78-.01,40.96-.02,81.92-.04,122.88-6.98-5.48-10.47-8.24-17.45-13.78.01-40.96.02-81.92.04-122.87Z"/>
        <path class="cls-3" d="M225.1,282.71c-6.98-5.48-10.47-8.23-17.45-13.78-.36-.29-.59-.74-.59-1.29,6.98,5.55,10.47,8.3,17.45,13.78,0,.55.22,1,.59,1.28Z"/>
        <path class="cls-5" d="M209.11,144.35c6.98,5.54,10.47,8.29,17.45,13.76-.01,40.96-.02,81.92-.04,122.88-6.98-5.48-10.47-8.23-17.45-13.76.01-40.96.02-81.92.04-122.87Z"/>
        <path class="cls-5" d="M225.1,282.71c-6.98-5.48-10.47-8.23-17.45-13.78.36.29.87.41,1.42.3,6.98,5.54,10.47,8.29,17.45,13.76-.55.12-1.06,0-1.42-.28Z"/>
        <path class="cls-7" d="M242.27,211.79c6.98,5.43,10.47,8.13,17.45,13.51,0,7.51,0,11.27,0,18.78-6.98-5.38-10.47-8.08-17.45-13.51,0-7.51,0-11.27,0-18.78Z"/>
        <path class="cls-7" d="M267.81,205.98c6.98,5.37,10.47,8.04,17.45,13.37-10.22,2.41-15.33,3.6-25.55,5.94-6.98-5.38-10.47-8.08-17.45-13.51,10.22-2.27,15.33-3.44,25.55-5.8Z"/>
        <path class="cls-5" d="M244.27,213.34c6.98,5.42,10.47,8.12,17.45,13.5,0,5.91,0,8.87,0,14.79-6.98-5.38-10.47-8.08-17.45-13.5,0-5.91,0-8.87,0-14.79Z"/>
        <path class="cls-3" d="M246.27,214.89c6.98,5.42,10.47,8.11,17.45,13.49,0,4.31,0,6.47,0,10.78-6.98-5.37-10.47-8.07-17.45-13.49,0-4.31,0-6.47,0-10.78Z"/>
        <path class="cls-3" d="M223.69,284.42c-6.98-5.49-10.47-8.24-17.45-13.79.73.58,1.73.82,2.83.59,6.98,5.54,10.47,8.29,17.45,13.76-1.1.24-2.11,0-2.83-.57Z"/>
        <path class="cls-7" d="M267.82,178.2c6.98,5.37,10.47,8.04,17.45,13.37,0,11.11,0,16.67,0,27.78-6.98-5.33-10.47-8.01-17.45-13.37,0-11.11,0-16.67,0-27.78Z"/>
        <path class="cls-5" d="M267.81,207.98c6.98,5.37,10.47,8.04,17.45,13.37-9.42,2.22-14.12,3.32-23.54,5.48-6.98-5.38-10.47-8.08-17.45-13.5,9.42-2.1,14.12-3.18,23.54-5.36Z"/>
        <path class="cls-5" d="M269.82,177.74c6.98,5.36,10.47,8.03,17.45,13.36,0,11.11,0,16.67,0,27.78-6.98-5.33-10.47-8-17.45-13.36,0-11.11,0-16.67,0-27.78Z"/>
        <path class="cls-5" d="M269.81,205.52c6.98,5.36,10.47,8.03,17.45,13.36,0,1.1-.89,2.21-2,2.47-6.98-5.33-10.47-8.01-17.45-13.37,1.11-.26,2-1.36,2-2.46Z"/>
        <path class="cls-3" d="M267.81,209.98c6.98,5.37,10.47,8.04,17.45,13.37-8.62,2.03-12.93,3.04-21.54,5.02-6.98-5.37-10.47-8.07-17.45-13.49,8.62-1.93,12.93-2.92,21.54-4.91Z"/>
        <path class="cls-3" d="M271.82,177.28c6.98,5.36,10.47,8.03,17.45,13.36,0,11.11,0,16.67,0,27.78-6.98-5.33-10.47-8-17.45-13.36,0-11.11,0-16.67,0-27.78Z"/>
        <path class="cls-3" d="M271.81,205.06c6.98,5.36,10.47,8.03,17.45,13.36,0,2.2-1.79,4.42-4,4.94-6.98-5.33-10.47-8.01-17.45-13.37,2.2-.51,4-2.72,4-4.92Z"/>
        <path class="cls-3" d="M270.75,222.08c6.98,5.36,10.47,8.03,17.45,13.36-10.59,2.51-15.89,3.75-26.48,6.18-6.98-5.38-10.47-8.08-17.45-13.5,10.59-2.37,15.89-3.58,26.48-6.04Z"/>
        <path class="cls-5" d="M270.75,224.08c6.98,5.36,10.47,8.03,17.45,13.36-9.49,2.25-18.98,4.46-28.49,6.64-6.98-5.38-10.47-8.08-17.45-13.51,9.51-2.11,19-4.28,28.49-6.49Z"/>
        <path class="cls-3" d="M289.61,235.69c-.36-.28-.86-.38-1.41-.25-5.14-3.92-10.27-7.85-15.41-11.8-.82-.63-1.22-.94-2.04-1.56.55-.13,1.05-.02,1.41.26,5.23,4.02,12.21,9.36,17.45,13.35Z"/>
        <path class="cls-5" d="M272.16,222.34c6.98,5.36,10.47,8.03,17.45,13.35.36.28.58.72.58,1.28-6.98-5.33-10.47-8-17.45-13.35,0-.55-.22-1-.58-1.28Z"/>
        <path class="cls-3" d="M273.58,220.6c6.98,5.35,10.47,8.02,17.45,13.35.73.55,1.18,1.45,1.17,2.55-6.98-5.32-10.47-7.99-17.45-13.34,0-1.1-.45-2-1.17-2.56Z"/>
        <path class="cls-7" d="M270.74,253.61c6.98,5.36,10.47,8.03,17.45,13.36-20.52,4.83-41.07,9.53-61.67,14.02-6.98-5.48-10.47-8.23-17.45-13.76,20.61-4.32,41.15-8.89,61.67-13.62Z"/>
        <path class="cls-7" d="M270.78,130.73c0,9.63,0,19.26,0,28.89-9.49,2.21-18.98,4.37-28.49,6.49,0,7.16,0,10.74,0,17.9,10.22-2.27,15.33-3.44,25.55-5.8,0,11.11,0,16.67,0,27.78-10.22,2.36-15.33,3.53-25.55,5.8,0,7.51,0,11.27,0,18.78,9.51-2.11,19-4.28,28.49-6.49,0,9.84,0,19.68,0,29.53-20.52,4.73-41.06,9.3-61.67,13.62.01-40.96.02-81.92.04-122.87,20.61-4.32,41.15-8.89,61.67-13.62Z"/>
        <path class="cls-7" d="M270.75,224.08c6.98,5.36,10.47,8.03,17.45,13.36,0,9.84,0,19.68,0,29.53-6.98-5.33-10.47-8-17.45-13.36,0-9.84,0-19.68,0-29.53Z"/>
        <path class="cls-5" d="M270.74,255.61c6.98,5.36,10.47,8.03,17.45,13.36-20.52,4.83-41.07,9.53-61.67,14.02-6.98-5.48-10.47-8.23-17.45-13.76,20.61-4.32,41.15-8.89,61.67-13.62Z"/>
        <path class="cls-5" d="M272.75,223.62c6.98,5.36,10.47,8.02,17.45,13.35,0,9.84,0,19.68,0,29.53-6.98-5.33-10.47-8-17.45-13.35,0-9.84,0-19.68,0-29.53Z"/>
        <path class="cls-5" d="M272.74,253.14c6.98,5.36,10.47,8.02,17.45,13.35,0,1.1-.89,2.21-2,2.47-6.98-5.33-10.47-8-17.45-13.36,1.11-.26,2-1.36,2-2.46Z"/>
        <path class="cls-3" d="M270.77,163.62c-9.79,2.27-14.69,3.4-24.49,5.59,0,3.96,0,5.94,0,9.91,8.62-1.93,12.93-2.92,21.54-4.91,2.2-.51,3.99.86,3.99,3.07,0,11.11,0,16.67,0,27.78,0,2.2-1.79,4.41-4,4.92-8.62,1.99-12.93,2.98-21.54,4.91,0,4.31,0,6.47,0,10.78,9.79-2.19,14.69-3.32,24.49-5.59,2.2-.51,4,.87,4,3.07,0,9.84,0,19.68,0,29.53,0,2.2-1.8,4.42-4.01,4.93-20.52,4.73-41.06,9.3-61.67,13.62-2.2.46-4-.97-4-3.17,0-13.58,0-27.17.01-40.75,0-13.37,0-26.74.01-40.1,0-14.01,0-28.01.01-42.02,0-2.2,1.8-4.37,4.01-4.83,20.61-4.32,41.15-8.89,61.67-13.62,2.2-.51,4,.87,4,3.07,0,9.63,0,19.26,0,28.89,0,2.2-1.8,4.42-4.01,4.93ZM267.82,176.2c-9.42,2.18-14.12,3.25-23.54,5.36,0-5.56,0-8.34,0-13.9,10.59-2.37,15.89-3.58,26.48-6.04,1.11-.26,2-1.36,2-2.46,0-9.63,0-19.26,0-28.89,0-1.11-.89-1.8-2-1.54-20.52,4.73-41.06,9.3-61.67,13.62-1.11.23-2.01,1.31-2.01,2.42-.01,40.96-.02,81.92-.04,122.87,0,1.1.9,1.81,2.01,1.58,20.61-4.32,41.15-8.89,61.67-13.62,1.11-.26,2-1.36,2-2.46,0-9.84,0-19.68,0-29.53,0-1.11-.89-1.79-2-1.53-10.59,2.46-15.89,3.67-26.48,6.04,0-5.91,0-8.87,0-14.79,9.42-2.1,14.12-3.18,23.54-5.36,1.11-.26,2-1.36,2-2.46,0-11.11,0-16.67,0-27.78,0-1.1-.89-1.79-2-1.53"/>
        <path class="cls-5" d="M270.77,161.62c-10.59,2.46-15.89,3.67-26.48,6.04,0,5.56,0,8.34,0,13.9,9.42-2.1,14.12-3.18,23.54-5.36,1.11-.26,2,.44,2,1.53,0,11.11,0,16.67,0,27.78,0,1.1-.89,2.2-2,2.46-9.42,2.18-14.12,3.25-23.54,5.36,0,5.91,0,8.87,0,14.79,10.59-2.37,15.89-3.58,26.48-6.04,1.11-.26,2,.43,2,1.53,0,9.84,0,19.68,0,29.53,0,1.1-.89,2.21-2,2.46-20.52,4.73-41.06,9.3-61.67,13.62-1.11.23-2.01-.49-2.01-1.58l.04-122.87c0-1.11.9-2.19,2.01-2.42,20.61-4.32,41.15-8.89,61.67-13.62,1.11-.26,2,.44,2,1.54,0,9.63,0,19.26,0,28.89,0,1.1-.89,2.21-2,2.46ZM267.82,178.2c-10.22,2.36-15.33,3.53-25.55,5.8,0-7.16,0-10.74,0-17.9,9.51-2.11,19-4.28,28.49-6.49,0-9.63,0-19.26,0-28.89-20.52,4.73-41.06,9.3-61.67,13.62-.01,40.96-.02,81.92-.04,122.87,20.61-4.32,41.15-8.89,61.67-13.62,0-9.84,0-19.68,0-29.53-9.49,2.21-18.98,4.37-28.49,6.49,0-7.51,0-11.27,0-18.78,10.22-2.27,15.33-3.44,25.55-5.8,0-11.11,0-16.67,0-27.78"/>
        <path class="cls-1" d="M270.74,257.6c6.98,5.36,10.47,8.03,17.45,13.36-20.52,4.83-41.07,9.53-61.67,14.02-6.98-5.48-10.47-8.23-17.45-13.76,20.61-4.32,41.15-8.89,61.67-13.62Z"/>
        <path class="cls-3" d="M274.75,223.15c6.98,5.35,10.47,8.02,17.45,13.34,0,9.84,0,19.68,0,29.53-6.98-5.32-10.47-7.99-17.45-13.34,0-9.84,0-19.68,0-29.53Z"/>
        <path class="cls-3" d="M274.75,252.68c6.98,5.35,10.47,8.02,17.45,13.34,0,2.2-1.8,4.42-4.01,4.94-6.98-5.33-10.47-8-17.45-13.36,2.2-.51,4-2.72,4.01-4.93Z"/>
      </g>
      <g class="cls-2">
        <path class="cls-7" d="M432.61,201.61c-6.98-5.43-10.47-8.13-17.45-13.52-1.42-1.1-2.65-2.91-3.69-5.42-2.15-5.21-3.22-12.99-3.21-23.33,0-10.51,1.14-18.73,3.43-24.66,6.98,5.38,10.47,8.08,17.45,13.5-2.29,5.92-3.42,14.13-3.43,24.64,0,10.34,1.07,18.13,3.21,23.35,1.04,2.52,2.27,4.33,3.69,5.44Z"/>
        <path class="cls-7" d="M426.42,124.85c6.98,5.41,10.47,8.13,17.45,13.6-1.51-1.19-3.3-1.55-5.35-1.1-3.92.86-7.06,4.47-9.39,10.83-6.98-5.42-10.47-8.12-17.45-13.5,2.33-6.38,5.46-10.01,9.39-10.9,2.05-.46,3.83-.11,5.35,1.07Z"/>
        <path class="cls-5" d="M434.04,199.9c-6.98-5.44-10.47-8.14-17.45-13.53-1.06-.82-2.19-2.27-3.24-4.83-2.06-4.98-3.09-12.61-3.09-22.66,0-10.2,1.1-18.22,3.28-23.89,6.98,5.38,10.47,8.08,17.45,13.51-2.18,5.66-3.28,13.67-3.28,23.87,0,10.05,1.03,17.69,3.09,22.68,1.05,2.56,2.19,4.03,3.24,4.85Z"/>
        <path class="cls-5" d="M425.05,126.62c6.98,5.41,10.47,8.13,17.45,13.59-1.11-.87-2.43-1.21-3.98-.87-1.12.24-4.54,1-7.53,9.16-6.98-5.43-10.47-8.13-17.45-13.51,3-8.18,6.42-8.96,7.53-9.21,1.55-.35,2.86-.02,3.98.84Z"/>
        <path class="cls-3" d="M423.66,128.39c6.98,5.41,10.47,8.12,17.45,13.58-.78-.61-1.65-.83-2.59-.62-2.11.46-4.02,2.99-5.67,7.5-6.98-5.43-10.47-8.14-17.45-13.52,1.65-4.52,3.57-7.06,5.67-7.53.94-.21,1.8,0,2.59.61Z"/>
        <path class="cls-3" d="M435.39,198.11c-6.98-5.44-10.47-8.15-17.45-13.54-.98-.76-1.89-2.15-2.72-4.17-1.97-4.77-2.97-12.17-2.96-21.98,0-9.93,1.06-17.68,3.15-23.11,6.98,5.39,10.47,8.09,17.45,13.52-2.09,5.41-3.14,13.16-3.15,23.09,0,9.81.99,17.22,2.96,22,.83,2.02,1.74,3.42,2.72,4.19Z"/>
        <path class="cls-3" d="M425.05,126.62c6.98,5.41,10.47,8.13,17.45,13.59,6.17,7.37,5.45,19.57,5.8,28.35,0,9.73-1.09,17.62-3.22,23.47-2.7,7.72-6.09,8.46-7.2,8.71-.66.15-2.15.47-3.84-.84-6.98-5.44-10.47-8.14-17.45-13.53,1.68,1.3,3.17.96,3.84.81,1.11-.25,4.5-1.02,7.2-8.76,2.13-5.87,3.22-13.77,3.22-23.49-.34-8.76.38-20.97-5.8-28.31Z"/>
        <path class="cls-5" d="M437.87,202.74h0c-5.14-4.01-15.41-11.2-15.41-11.98,0,0,10.27,7.97,15.41,11.98Z"/>
        <path class="cls-3" d="M317.67,117.6c6.98,5.3,10.47,7.95,17.45,13.24-1.11.27-2.01,1.38-2.01,2.49-6.98-5.3-10.47-7.94-17.45-13.24,0-1.11.9-2.22,2.01-2.49Z"/>
        <path class="cls-3" d="M350.85,109.59c6.98,5.3,10.47,7.95,17.45,13.26-11.06,2.66-22.12,5.32-33.18,7.99-6.98-5.3-10.47-7.94-17.45-13.24,11.06-2.67,22.12-5.34,33.18-8.01Z"/>
        <path class="cls-5" d="M350.85,111.6c6.98,5.3,10.47,7.95,17.45,13.26-11.06,2.66-22.12,5.32-33.18,7.99-6.98-5.3-10.47-7.94-17.45-13.24,11.06-2.67,22.12-5.34,33.18-8.01Z"/>
        <path class="cls-3" d="M369.72,123.1c-.36-.28-.86-.38-1.42-.25-6.98-5.31-10.47-7.96-17.45-13.26.55-.13,1.05-.03,1.42.25,5.23,3.97,12.21,9.28,17.45,13.26Z"/>
        <path class="cls-5" d="M352.27,109.84c6.98,5.3,10.47,7.95,17.45,13.26.36.28.59.72.59,1.28-6.98-5.31-10.47-7.96-17.45-13.26,0-.55-.22-1-.59-1.28Z"/>
        <path class="cls-3" d="M353.68,108.09c6.98,5.3,10.47,7.95,17.45,13.26.73.55,1.18,1.45,1.17,2.55-6.98-5.31-10.47-7.97-17.45-13.27,0-1.1-.45-2-1.17-2.55Z"/>
        <path class="cls-3" d="M419.39,112.97c-4.47,3.21-8.63,7.21-12.45,11.96-6.98-5.37-10.47-8.04-17.45-13.38,3.82-4.77,10.41-12.05,12.45-12.02.23,0,1.05.81,1.5,1.15.48.37,1.12.86,1.59,1.23.5.38,1.16.89,1.65,1.27.51.39,1.18.91,1.69,1.3s1.18.91,1.69,1.3c.5.38,1.16.89,1.65,1.27.48.37,1.12.86,1.59,1.23.45.35,1.05.81,1.5,1.16.16.12.37.29.53.41.17.13.4.31.57.44.18.14.41.32.59.45.18.14.42.32.6.46.4.31.79.61,1.19.92.37.28.73.57,1.1.85Z"/>
        <path class="cls-3" d="M395.76,144.16c-14.11-10.81-17.05-11.86-17.45-13.33-.8-2.89,6.54-13.49,11.18-19.28,6.98,5.34,10.47,8.01,17.45,13.38-4.64,5.77-8.37,12.2-11.18,19.23Z"/>
        <path class="cls-5" d="M400.35,138.42c-5.82-4.46-16.93-11.07-17.45-13.35-.03-.15.51-1.09.57-1.11.18-.04,1.43,1.09,2.04,1.56.65.49,1.51,1.16,2.16,1.65.67.51,1.57,1.2,2.24,1.71.68.52,1.6,1.22,2.28,1.75.69.52,1.6,1.22,2.28,1.75.67.52,1.57,1.2,2.24,1.72.65.5,1.51,1.16,2.16,1.66.61.47,1.99,1.33,2.04,1.56.03.14-.39.73-.57,1.1Z"/>
        <path class="cls-5" d="M408.37,126c-2.84,3.53-6.75,11.17-7.45,11.32-1.69.37-16.96-11.13-17.45-13.35-.34-1.57,4.62-7.81,7.45-11.35,5.64-7.03,15.51-16.17,19.01-15.83.24.02.96.74,1.37,1.06.44.34,1.02.79,1.46,1.12.45.35,1.06.82,1.51,1.16.46.36,1.08.83,1.54,1.19s1.08.83,1.54,1.19c.45.35,1.06.82,1.51,1.17.44.34,1.02.79,1.46,1.13.41.32.96.74,1.37,1.06.2.15.47.36.67.51.21.16.49.38.71.55.22.17.51.4.73.57.22.17.52.4.75.58.95.74,2.85,2.17,2.85,2.21-.12,1.19-13.38,8.72-19.01,15.73Z"/>
        <path class="cls-3" d="M315.66,120.09c6.98,5.3,10.47,7.95,17.45,13.24l-.04,122.88c-6.98-5.3-10.47-7.94-17.45-13.24.01-40.96.02-81.92.04-122.88Z"/>
        <path class="cls-3" d="M333.08,256.21c0,.55.22.99.59,1.27-6.98-5.3-10.47-7.94-17.45-13.24-.36-.27-.59-.72-.59-1.27,5.23,3.98,12.21,9.27,17.45,13.24Z"/>
        <path class="cls-5" d="M317.67,119.61c6.98,5.3,10.47,7.95,17.45,13.24-.01,40.96-.02,81.92-.04,122.88-6.98-5.3-10.47-7.94-17.45-13.24.01-40.96.02-81.92.04-122.88Z"/>
        <path class="cls-5" d="M333.66,257.48c-6.98-5.3-10.47-7.94-17.45-13.24.36.28.87.38,1.42.25,6.98,5.3,10.47,7.95,17.45,13.24-.55.13-1.06.03-1.42-.25Z"/>
        <path class="cls-7" d="M350.85,111.6c6.98,5.3,10.47,7.95,17.45,13.26,0,31.12-.02,62.23-.03,93.35-6.98-5.31-10.47-7.96-17.45-13.26,0-31.12.02-62.23.03-93.35Z"/>
        <path class="cls-5" d="M352.86,111.12c6.98,5.3,10.47,7.95,17.45,13.26,0,30.45-.02,60.9-.03,91.35-6.98-5.31-10.47-7.96-17.45-13.26,0-30.45.02-60.9.03-91.35Z"/>
        <path class="cls-3" d="M354.85,110.64c6.98,5.3,10.47,7.95,17.45,13.27,0,29.78-.02,59.56-.03,89.34-6.98-5.31-10.47-7.97-17.45-13.27,0-29.78.02-59.56.03-89.34Z"/>
        <path class="cls-3" d="M332.25,259.23c-6.98-5.3-10.47-7.94-17.45-13.25.73.55,1.73.76,2.83.49,6.98,5.3,10.47,7.95,17.45,13.24-1.1.27-2.11.06-2.83-.49Z"/>
        <path class="cls-3" d="M389.91,192.49c-5.82-4.45-15.33-9.53-17.45-13.31-1.13-2.01-.58-7.86-.58-12.14-.04-12.32,5.12-35.84,6.43-36.2,1.43-.4,16.74,10.76,17.45,13.33,1.31,4.73-6.48,23.87-6.44,36.18,0,4.28.19,8.33.58,12.15Z"/>
        <path class="cls-3" d="M419.39,112.97c-1.77-1.37-3.54-2.74-5.31-4.1-.47-.36-1.09-.84-1.55-1.2-.49-.38-1.14-.88-1.63-1.25-1.12-.86-2.24-1.73-3.36-2.59-.83-.64-1.66-1.28-2.5-1.92-.24-.19-.56-.43-.81-.62-.24-.18-.55-.42-.79-.61-.23-.18-.54-.41-.77-.59-.22-.17-.81-.42-.74-.57,1.78-3.49,12.16-7.12,18.99-8.66,10.64-1.12,21.46-2.11,30.35,5.49,6.98,5.49,10.47,8.25,17.45,13.8-8.86-7.67-19.67-6.78-30.35-5.73-6.82,1.5-13.17,4.36-18.99,8.55Z"/>
        <path class="cls-5" d="M427.39,110.27c-2.12-1.65-4.25-3.29-6.37-4.94-1.22-.95-2.44-1.89-3.66-2.83-1.03-.79-2.05-1.58-3.08-2.37-.45-.35-1.06-.82-1.51-1.16-.44-.34-1.02-.79-1.46-1.12-.21-.16-.49-.38-.7-.54-.2-.16-.74-.41-.67-.52.97-1.57,7.16-3.05,10.99-3.92,8.84-2.67,21.7-.98,28.91,5.19,6.98,5.48,10.47,8.24,17.45,13.79-7.18-6.22-20.03-8.03-28.91-5.42-3.84.84-7.5,2.13-10.99,3.85Z"/>
        <path class="cls-3" d="M375.73,196.98c6.98,5.32,10.47,7.98,17.45,13.32-.64.15-.97.23-1.61.38-6.98-5.34-10.47-8-17.45-13.32.64-.15.97-.23,1.61-.38Z"/>
        <path class="cls-3" d="M373.51,195.5c6.98,5.32,10.47,7.98,17.45,13.32.19.63.4,1.25.61,1.86-6.98-5.34-10.47-8-17.45-13.32-.21-.61-.41-1.23-.61-1.86Z"/>
        <path class="cls-3" d="M374.12,197.36c6.98,5.32,10.47,7.98,17.45,13.32-8.52,2-12.78,3.02-21.29,5.05-6.98-5.31-10.47-7.96-17.45-13.26,8.52-2.05,12.78-3.08,21.29-5.11Z"/>
        <path class="cls-3" d="M393.42,210.26c-.08,0-.16.02-.24.04-6.98-5.34-10.47-8.01-17.45-13.32.08-.02.19-.06.24-.04,4.4,1.2,11.63,8.87,17.45,13.32Z"/>
        <path class="cls-3" d="M389.91,192.49c.67,6.64,1.94,12.57,3.78,17.76-6.98-5.34-10.47-8.01-17.45-13.32-1.84-5.19-3.78-17.75-3.78-17.75.14-.08,3.15,2.4,4.72,3.59.37.28.86.66,1.24.94.36.28.85.65,1.21.92.76.58,1.51,1.15,2.27,1.73.28.21.65.5.94.71.3.23.69.53.99.76.31.24.72.55,1.03.79.31.24.73.56,1.05.8.16.12.37.28.53.4.16.12.37.28.52.4.16.12.36.28.52.4.3.23.71.54,1.01.77.15.11.34.26.49.37.28.21.77.4.94.72Z"/>
        <path class="cls-3" d="M393.42,210.26c-.35-.09-.65-.5-.92-.71-.15-.11-.34-.26-.48-.37-.3-.23-.7-.54-1-.77-.31-.24-.72-.55-1.03-.79-.16-.12-.36-.28-.52-.4-1.32-1.01-2.64-2.02-3.96-3.02-3.18-2.43-9.54-7.27-9.54-7.27,0,0,.19-.02.27-.01,6.98,5.32,10.47,7.98,17.45,13.32-.09,0-.18,0-.27.01Z"/>
        <path class="cls-5" d="M375.73,198.97c6.98,5.32,10.47,7.98,17.45,13.32-9.96,2.34-14.94,3.53-24.91,5.91-6.98-5.31-10.47-7.96-17.45-13.26,9.96-2.4,14.94-3.6,24.91-5.98Z"/>
        <path class="cls-7" d="M449.84,98.05c6.98,5.48,10.47,8.24,17.45,13.79,1.73,1.38,3.37,2.97,4.91,4.78-6.98-5.57-10.47-8.33-17.45-13.83-1.54-1.8-3.17-3.37-4.91-4.74Z"/>
        <path class="cls-7" d="M375.73,198.97c6.98,5.32,10.47,7.98,17.45,13.32,0,9.84,0,19.68,0,29.53-6.98-5.34-10.47-8.01-17.45-13.32,0-9.84,0-19.68,0-29.53Z"/>
        <path class="cls-5" d="M376.24,196.92c6.98,5.32,10.47,7.98,17.45,13.32.46,1.29.95,2.54,1.49,3.74-6.98-5.35-10.47-8.01-17.45-13.33-.53-1.2-1.03-2.44-1.49-3.74Z"/>
        <path class="cls-5" d="M377.73,200.65c6.98,5.32,10.47,7.98,17.45,13.33,0,1.98,0,2.96,0,4.94-6.98-5.35-10.47-8.01-17.45-13.33v-4.94Z"/>
        <path class="cls-5" d="M449.73,155.21c-5.82-4.57-15.31-9.78-17.45-13.64-2.6-4.7-2.84-14.38-5.86-16.71,6.98,5.41,10.47,8.13,17.45,13.6,3.01,2.36,4.96,7.95,5.86,16.76Z"/>
        <path class="cls-5" d="M377.72,205.6c6.98,5.32,10.47,7.98,17.45,13.33,0,8.97,0,13.46,0,22.43-6.98-5.35-10.47-8.01-17.45-13.33,0-8.97,0-13.46,0-22.43Z"/>
        <path class="cls-3" d="M397.18,222.23c-5.82-4.46-13.26-8.89-17.45-13.34-.73-.77-1.37-2.15-2.01-3.3,6.98,5.32,10.47,7.98,17.45,13.33.63,1.15,1.3,2.25,2.01,3.31Z"/>
        <path class="cls-3" d="M398.89,220.8c-5.82-4.46-13.26-8.89-17.45-13.34-1.43-1.52-2.63-4.34-3.72-6.8,6.98,5.32,10.47,7.98,17.45,13.33,1.09,2.46,2.33,4.73,3.72,6.81Z"/>
        <path class="cls-5" d="M391.33,179.87c.65,13.8,9.16,39.36,9.16,39.36-.08.08-13.37-8.91-17.45-13.35-7.94-8.64-8.51-25.54-9.16-39.32.72-14.56,6.86-40.99,9.02-41.48,1.64-.38,16.92,11.05,17.45,13.35,1.2,5.22-8.3,26.9-9.02,41.45Z"/>
        <path class="cls-5" d="M402,221.35c-1.64-1.26-3.28-2.51-4.91-3.77-.24-.18-.55-.42-.79-.61-2.28-1.75-4.56-3.49-6.84-5.23-.26-.2-.6-.46-.86-.66-.5-.39-1.18-.9-1.68-1.29-.24-.19-.57-.44-.81-.62-.24-.18-.55-.42-.79-.6-.23-.17-.69-.38-.76-.58-.19-.55-1.51-2.11-1.51-2.11,0,0,1.43,1.09,2.04,1.56.65.49,1.51,1.16,2.16,1.65.67.51,1.57,1.2,2.24,1.71.68.52,1.6,1.22,2.28,1.75.69.52,1.6,1.22,2.28,1.75.67.52,1.57,1.2,2.24,1.72.65.5,1.51,1.16,2.16,1.66.61.47,1.6,1.09,2.04,1.56.5.54.99,1.44,1.51,2.12Z"/>
        <path class="cls-3" d="M502.58,105.54c-5.82-4.75-17.26-12.4-17.45-14.16-.01-.11.61-.85.7-.86,2.21-.22,17.29,12.45,17.45,14.16.01.11-.47.57-.7.85Z"/>
        <path class="cls-7" d="M375.72,228.5c6.98,5.32,10.47,7.98,17.45,13.32-19.38,4.55-38.73,9.22-58.09,13.9-6.98-5.3-10.47-7.94-17.45-13.24,19.36-4.66,38.71-9.36,58.09-13.98Z"/>
        <path class="cls-5" d="M376.24,196.92c.46,1.29.95,2.54,1.49,3.74v4.94c0,8.97,0,13.46,0,22.43,0,1.1-.89,2.21-2,2.47-19.37,4.62-38.72,9.32-58.09,13.98-1.11.27-2.01-.42-2.01-1.51.01-40.96.02-81.92.04-122.88,0-1.11.9-2.22,2.01-2.49,11.06-2.67,22.12-5.34,33.18-8.01,1.11-.27,2.01.42,2.01,1.52,0,30.45-.02,60.9-.03,91.35,8.52-2.05,12.78-3.08,21.29-5.11.64-.15.97-.23,1.61-.38.18-.04.35-.06.51-.06ZM375.72,228.5c0-9.84,0-19.68,0-29.53-9.96,2.37-14.94,3.57-24.91,5.98,0-31.12.02-62.23.03-93.35-11.06,2.67-22.12,5.34-33.18,8.01-.01,40.96-.02,81.92-.04,122.88,19.36-4.66,38.71-9.36,58.09-13.98"/>
        <path class="cls-7" d="M350.85,111.6c0,31.12-.02,62.23-.03,93.35,9.96-2.4,14.94-3.6,24.91-5.98,0,9.84,0,19.68,0,29.53-19.37,4.62-38.72,9.32-58.09,13.98.01-40.96.02-81.92.04-122.88,11.06-2.67,22.12-5.34,33.18-8.01Z"/>
        <path class="cls-3" d="M502.58,105.54c-4,4.95-9.19,16.29-9.89,16.46-1.47.36-16.8-11.44-17.45-14.04-.63-2.51,8.4-16.41,9.89-16.57,2.17-.24,11.63,9.4,17.45,14.16Z"/>
        <path class="cls-5" d="M375.72,230.5c6.98,5.32,10.47,7.98,17.45,13.32-19.38,4.55-38.73,9.22-58.09,13.9-6.98-5.3-10.47-7.94-17.45-13.24,19.36-4.66,38.71-9.36,58.09-13.98Z"/>
        <path class="cls-5" d="M377.72,228.02c6.98,5.32,10.47,7.98,17.45,13.33,0,1.1-.89,2.21-2,2.47-6.98-5.34-10.47-8.01-17.45-13.32,1.11-.26,2-1.38,2-2.47Z"/>
        <path class="cls-5" d="M402,221.35c1.68,2.19,5.63,5.81,5.63,5.81,0,0-11.77-8.92-17.45-13.38-2.07-1.63-5.63-5.78-5.63-5.78,0,0,1.09.83,1.55,1.19.49.38,1.15.88,1.65,1.26.51.39,1.2.91,1.71,1.31.52.4,1.22.93,1.74,1.33.52.4,1.22.93,1.74,1.33.51.39,1.2.92,1.71,1.31.49.38,1.15.88,1.65,1.26.47.36,1.09.83,1.55,1.19.15.11.34.26.48.37.15.12.36.28.51.39.16.12.37.29.53.41.16.12.38.29.54.42.16.12.38.29.54.42.08.06.19.14.27.21.16.12.37.28.52.4.08.06.18.14.25.19.15.11.36.24.48.37Z"/>
        <path class="cls-1" d="M375.72,232.5c6.98,5.32,10.47,7.98,17.45,13.32-19.38,4.55-38.73,9.22-58.09,13.9-6.98-5.3-10.47-7.94-17.45-13.24,19.36-4.66,38.71-9.36,58.09-13.98Z"/>
        <path class="cls-3" d="M379.73,208.89c6.98,5.32,10.47,7.99,17.45,13.34,0,7.46,0,11.19,0,18.65-6.98-5.35-10.47-8.02-17.45-13.34,0-7.46,0-11.19,0-18.65Z"/>
        <path class="cls-5" d="M407.62,227.15c.22.18.44.35.66.52-6.98-5.37-10.47-8.05-17.45-13.38-.22-.17-.66-.52-.66-.52,0,0,1.43,1.09,2.04,1.56.65.5,1.51,1.16,2.16,1.65.67.52,1.57,1.2,2.24,1.72.69.52,1.6,1.22,2.28,1.75.34.26.8.61,1.14.88.34.26.8.61,1.14.87.67.52,1.57,1.21,2.24,1.72.33.25.77.59,1.09.84,1.04.8,2.08,1.58,3.11,2.39Z"/>
        <path class="cls-3" d="M406.18,228.87c.23.19.46.37.69.55-6.98-5.37-10.47-8.04-17.45-13.38-.23-.18-.46-.36-.69-.54-2.77-2.24-7.29-8.04-7.29-8.04,0,0,.85.65,1.22.93.39.3.9.69,1.29.98.4.31.94.72,1.34,1.02.41.31.95.73,1.36,1.04.41.31.95.73,1.36,1.04.4.31.94.72,1.34,1.02.39.3.9.69,1.29.99.37.28.85.65,1.22.93.25.19.57.44.82.63.26.2.61.47.87.67.27.21.63.48.9.69.28.21.64.49.92.7.28.21.64.49.92.7.27.21.63.48.9.69.26.2.61.47.87.67.25.19.64.44.82.63,2.15,2.3,4.52,5.82,7.29,8.07Z"/>
        <path class="cls-7" d="M408.29,227.68c-6.98-5.37-10.47-8.05-17.45-13.38,9.01,7.59,19.68,6.83,30.45,5.73,13.8-3.38,25.97-12.49,33.19-24.79,8.75-14.36,13.17-31.52,12.82-48.35.41-15.24-2.84-31.99-12.56-44.09,6.98,5.5,10.47,8.27,17.45,13.83,9.7,12.17,12.97,28.94,12.56,44.22.36,16.79-4.05,33.92-12.82,48.23-7.23,12.24-19.41,21.24-33.19,24.52-10.79,1.03-21.46,1.71-30.45-5.91Z"/>
        <path class="cls-5" d="M485.15,141.24c.42,2.32.76,4.72,1.02,7.23-5.14-4.14-10.27-8.26-15.41-12.35-.82-.65-1.22-.97-2.04-1.62-.25-2.5-.59-4.9-1.02-7.22-1.25-8.74-5.42-19.31-11.34-26.02-1.59-1.86-3.29-3.5-5.09-4.91,6.98,5.49,10.47,8.25,17.45,13.8,1.8,1.43,3.5,3.09,5.09,4.96,5.92,6.76,10.09,17.36,11.34,26.13Z"/>
        <path class="cls-3" d="M452.67,94.62c6.98,5.49,10.47,8.26,17.45,13.82,1.88,1.5,3.65,3.23,5.32,5.19,4.96,5.86,8.55,13.37,10.75,22.42-6.98-5.63-10.47-8.42-17.45-13.97-2.19-9.03-5.78-16.5-10.75-22.32-1.66-1.94-3.44-3.66-5.32-5.14Z"/>
        <path class="cls-3" d="M486.18,136.04c-.39,1.71-.73,3.44-1.03,5.2-5.14-4.14-10.27-8.25-15.41-12.34-.82-.65-1.22-.97-2.04-1.62.3-1.77.97-5.19,1.03-5.21,1.07-.38,11.63,9.29,17.45,13.97Z"/>
        <path class="cls-3" d="M487.19,140.82c-5.82-4.69-16.2-10.71-17.45-13.98-1.19-3.14,4.81-18.71,5.5-18.88.16-.04,1.43,1.14,2.04,1.63.65.52,1.51,1.21,2.16,1.73.67.54,1.57,1.26,2.24,1.8.68.55,1.6,1.28,2.28,1.84.68.55,1.6,1.29,2.28,1.84.67.54,1.57,1.27,2.24,1.81.65.52,1.51,1.22,2.16,1.75.61.49,1.97,1.37,2.04,1.65.6,2.43-4.34,12.09-5.5,18.82Z"/>
        <path class="cls-5" d="M493.87,123.97c-5.82-4.72-16.75-11.38-17.45-14.06-.74-2.83,6.33-12.82,10.84-18.26,1.86-2.24,4.97-6.1,5.79-6.12.24,0,1.25,1.02,1.79,1.45.57.46,1.33,1.08,1.9,1.54.59.48,1.38,1.12,1.97,1.6.6.49,1.4,1.14,2.01,1.64.6.49,1.4,1.15,2.01,1.64.59.48,1.38,1.13,1.97,1.61.57.47,1.33,1.09,1.9,1.56.54.44,1.25,1.03,1.79,1.47.35.29.7.58,1.06.87.08.07.19.16.28.23.08.07.19.16.27.22.08.06.18.15.26.22.07.06.25.19.25.2.02.66-3.94,3.84-5.79,6.05-4.51,5.39-8.12,11.44-10.84,18.14Z"/>
        <path class="cls-3" d="M350.85,107.6c2.2-.53,4,.83,4,3.04,0,29.78-.02,59.56-.03,89.34,7.48-1.8,11.21-2.7,18.69-4.48.19.63.4,1.25.61,1.86-8.52,2.03-12.78,3.06-21.29,5.11,0-30.45.02-60.9.03-91.35,0-1.11-.9-1.79-2.01-1.52-11.06,2.67-22.12,5.34-33.18,8.01-1.11.27-2.01,1.38-2.01,2.49-.01,40.96-.02,81.92-.04,122.88,0,1.1.9,1.78,2.01,1.51,19.36-4.66,38.71-9.36,58.09-13.98,1.11-.26,2-1.38,2-2.47,0-8.97,0-13.46,0-22.43.63,1.15,1.3,2.25,2.01,3.3,0,7.46,0,11.19,0,18.65,0,2.2-1.8,4.42-4.01,4.95-19.37,4.62-38.72,9.32-58.09,13.98-2.2.53-4-.83-4-3.03.01-40.96.02-81.92.04-122.88,0-2.2,1.8-4.44,4.01-4.97,11.06-2.67,22.12-5.34,33.18-8.01Z"/>
        <path class="cls-3" d="M379.72,227.55c6.98,5.32,10.47,7.99,17.45,13.34,0,2.2-1.8,4.42-4.01,4.93-6.98-5.34-10.47-8.01-17.45-13.32,2.2-.53,4-2.74,4.01-4.95Z"/>
        <path class="cls-5" d="M449.31,182.67c-5.82-4.57-16.15-10.38-17.45-13.64-.79-1.99.98-9.13.98-14.55,0-4.89-.57-12.92-.57-12.92.04-.02,1.08.84,1.55,1.2.24.19.57.44.81.63.5.39,1.17.91,1.67,1.3.52.4,1.2.94,1.72,1.34.52.41,1.22.95,1.74,1.36.52.4,1.2.94,1.72,1.34.5.39,1.17.92,1.67,1.31.48.37,1.12.87,1.6,1.25.3.24.7.55,1,.78.35.27.69.54,1.04.82.37.29.73.58,1.1.86.16.13.38.3.55.43.08.06.19.15.27.21l.52.41c.15.12.45.23.49.39.82,3.03.57,8.04.57,12.93,0,5.42-.33,10.27-.98,14.54Z"/>
        <path class="cls-3" d="M389.49,111.55c-12.31,15.41-17.56,36.35-17.62,55.48-.03,9.38,1.05,20.79,4.36,29.89-.16,0-.33.01-.51.06-.64.15-.97.23-1.61.38-.21-.61-.41-1.23-.61-1.86-2.7-8.66-3.64-19.14-3.63-27.99.02-19.72,5.63-41.19,18.19-57.03,8.31-10.47,19.74-18.69,32.86-21.61,13.11-2.92,28.24.08,37.05,10.89,4.72,5.79,8.55,13.28,10.75,22.32-.39,1.71-.73,3.45-1.03,5.21-1.25-8.74-5.59-19.32-11.34-26.02-8.75-10.19-22.6-13.48-35.43-10.4-12.44,2.98-23.49,10.61-31.44,20.68Z"/>
        <path class="cls-5" d="M435.16,202.81c-.91-.18-1.76-.58-2.55-1.19-6.98-5.43-10.47-8.13-17.45-13.52.79.61,1.64,1,2.55,1.18,5.82,4.49,11.63,9,17.45,13.54Z"/>
        <path class="cls-5" d="M449.31,182.67c-.55,3.63-2.1,9.58-2.36,9.65-1.35.39-16.67-10.93-17.45-13.62-.34-1.18,2.34-9.66,2.36-9.67.94-.37,11.63,9.07,17.45,13.64Z"/>
        <path class="cls-5" d="M435.16,202.81c-6.98-5.44-10.47-8.14-17.45-13.54,0,0,0,0,0,0,.85.16,2.17-.2,2.71-.08,4.12.91,11.63,9.01,17.45,13.55,0,0,0,0,0,0-5.82-4.54-17.45-13.55-17.45-13.55.02-.09,2.37-1.18,2.77-1.16.33.02,1.43,1.11,2.04,1.58.65.5,1.51,1.17,2.16,1.68.67.52,1.57,1.22,2.24,1.74.68.53,1.6,1.24,2.28,1.77.68.53,1.6,1.24,2.28,1.78.67.52,1.57,1.22,2.24,1.75.65.51,1.51,1.18,2.16,1.69.61.48,1.43,1.11,2.04,1.59,0,0,0,0,0,0-5.82-4.54-17.48-13.01-17.45-13.57.03-.56,5.89-9.21,6.3-9.33.14-.04,1.43,1.11,2.04,1.58.65.5,1.51,1.18,2.16,1.68.67.52,1.57,1.22,2.24,1.75.68.53,1.6,1.25,2.28,1.78.68.53,1.6,1.25,2.28,1.78.67.53,1.57,1.23,2.24,1.75.65.51,1.51,1.18,2.16,1.69.61.48,1.95,1.31,2.04,1.6.76,2.59-5.15,9.55-9.07,10.42-.96.21-1.86.23-2.71.06Z"/>
        <path class="cls-5" d="M421.07,123.78c12.98-.76,11.63,23.44,11.77,30.7.19,9.83-1.18,18.13-3.35,24.22-2.15,6.04-5.15,9.59-9.07,10.48-3.82.87-6.8-1.3-8.95-6.52-2.15-5.21-3.22-12.99-3.21-23.33,0-10.51,1.14-18.73,3.43-24.66,2.33-6.38,5.46-10.01,9.39-10.9ZM427.63,178.42c2.13-5.87,3.11-13.88,3.22-23.49.09-7.44-.22-29.81-9.77-29.15-.97.07-4.54,1.03-7.53,9.21-2.18,5.67-3.28,13.69-3.28,23.89,0,10.05,1.03,17.68,3.09,22.66,2.73,6.62,6,5.88,7.08,5.64,1.11-.25,4.5-1.02,7.2-8.76"/>
        <path class="cls-7" d="M454.74,102.79c9.72,12.1,12.6,29.22,12.56,44.09-.05,16.43-4.25,34.04-12.82,48.35-7.27,12.14-19.4,21.42-33.19,24.79-10.8,2.64-22.41.86-31.11-6.25-13.35-10.9-16.34-31.23-16.3-47.22.05-18.61,5.17-38.96,17.05-53.94,7.59-9.56,18.13-16.9,30.01-19.75,12.25-2.94,25.48-.07,33.81,9.92ZM429.5,178.71c2.22-6.12,3.54-14.39,3.35-24.22-.14-7.27.05-32.37-11.77-30.7-3.66.52-7.06,4.52-9.39,10.9-2.29,5.93-3.42,14.15-3.43,24.66,0,10.34,1.07,18.12,3.21,23.33,2.15,5.21,5.13,7.38,8.95,6.52,3.92-.89,6.95-4.38,9.07-10.48"/>
        <path class="cls-3" d="M430.31,165.87c.08-.77.15-1.56.22-2.36.04-.54.08-1.08.11-1.63.02-.28.03-.55.05-.83.03-.56.06-1.12.08-1.69.05-1.43.06-2.92.08-4.43.09-7.44-.22-29.81-9.77-29.15-.97.07-4.5,1.12-7.53,9.21-.33.88-.65,1.83-.94,2.83-.07.24-.14.49-.21.74-.1.37-.19.74-.28,1.12-.1.43-.2.86-.29,1.31-.05.22-.09.45-.14.67-.1.49-.19.99-.27,1.49-.07.41-.14.82-.2,1.24,0,.07-.02.13-.03.2-.18,1.2-.33,2.44-.45,3.74-.03.27-.05.54-.07.81-.26,2.98-.39,6.23-.39,9.74,0,2.18.05,4.25.14,6.21,0,.03,0,.06,0,.08.09,1.92.24,3.73.43,5.42,0,.05.01.1.02.16.11.92.23,1.8.36,2.65.08.52.17,1.03.26,1.53.07.4.15.79.23,1.17.44,2.07.99,3.88,1.63,5.44,1.79,4.35,3.82,5.52,5.3,5.75.78.12,1.41-.02,1.78-.11.1-.02.23-.05.37-.09.05-.01.1-.03.15-.04.1-.03.21-.07.33-.11.35-.13.76-.31,1.21-.6.45-.29.94-.68,1.46-1.22.09-.09.17-.18.26-.28.43-.49.88-1.09,1.33-1.82.54-.87,1.07-1.93,1.6-3.23.17-.43.34-.89.51-1.37.2-.55.39-1.12.57-1.7.24-.78.47-1.59.68-2.44.47-1.9.86-3.95,1.16-6.16.1-.74.19-1.49.27-2.26ZM425.75,178.13c-2.21,6.34-4.56,6.88-5.33,7.05-1.97.45-3.72-1.17-5.21-4.78-1.96-4.77-2.97-12.17-2.96-21.98,0-9.93,1.12-17.71,3.15-23.11,1.67-4.46,4.28-7.71,5.67-7.53,6.71.86,7.59,18.75,7.77,27.6.2,9.27-1.04,17.12-3.09,22.76"/>
        <path class="cls-3" d="M487.19,140.82c-.43,2.49-.77,5.04-1.02,7.65-6.98-5.63-10.47-8.42-17.45-13.97.25-2.61,1-7.65,1.02-7.66.97-.37,11.63,9.29,17.45,13.98Z"/>
        <path class="cls-5" d="M485.67,159.31c-5.82-4.69-15.66-10.26-17.45-13.97-.91-1.89.17-7.33.5-10.84,6.98,5.55,10.47,8.35,17.45,13.97-.33,3.5-.5,7.12-.5,10.84Z"/>
        <path class="cls-5" d="M485.67,159.31c0,4.23.19,8.25.57,12.04-6.98-5.63-10.47-8.42-17.45-13.97-.38-3.79-.57-7.8-.57-12.04,5.23,4.16,12.21,9.75,17.45,13.97Z"/>
        <path class="cls-3" d="M534.71,85.91c-12.49,1.99-28.48,18.48-31.43,18.77-2.2.22-17.27-12.44-17.45-14.16-.38-3.65,18.91-17,31.43-19.18,9.39-1.62,18.72-.69,24.64,3.37,5.65,3.88,17.45,14.94,17.45,14.94-.02.03-15.24-5.22-24.64-3.74Z"/>
        <path class="cls-5" d="M510.5,99.78c-1-.82-2-1.64-2.99-2.46-2.6-2.13-5.2-4.26-7.79-6.38-.6-.49-1.4-1.14-1.99-1.62-.29-.24-.69-.56-.98-.8-.94-.76-1.87-1.52-2.81-2.28-.26-.21-.97-.51-.88-.71,2.33-5.3,15.19-10.63,24.21-12.19,9.69-1.67,18.84-.43,25,4.06,5.71,4.17,17.45,14.94,17.45,14.94-.01.02-15.32-5.97-25-4.44-9.02,1.43-17.09,5.41-24.21,11.87Z"/>
        <path class="cls-7" d="M522.76,105.64c6.98,5.81,10.47,8.74,17.45,14.65-1.51-1.28-3.3-1.76-5.34-1.44-3.92.62-7.06,4.05-9.39,10.28-6.98-5.82-10.47-8.71-17.45-14.44,2.33-6.26,5.46-9.73,9.39-10.4,2.05-.35,3.83.1,5.34,1.36Z"/>
        <path class="cls-5" d="M521.39,107.33c6.98,5.8,10.47,8.73,17.45,14.63-1.11-.94-2.43-1.36-3.98-1.12-1.12.18-4.54.72-7.53,8.71-6.98-5.83-10.47-8.73-17.45-14.47,3-8.03,6.41-8.62,7.53-8.81,1.55-.27,2.86.14,3.98,1.06Z"/>
        <path class="cls-5" d="M438.74,235.59c-11.02,2.58-22.79.85-31.86-6.17-6.98-5.37-10.47-8.04-17.45-13.38,9.09,6.99,20.86,8.64,31.86,5.99,14.44-3.55,27.23-13.09,34.8-25.96,6.29-9.55,9.09-20.07,11.67-31.02.43-2.5.77-5.06,1.02-7.67,6.98,5.55,10.47,8.35,17.45,13.97-.25,2.61-.59,5.16-1.02,7.66-2.58,10.92-5.37,21.41-11.67,30.91-7.58,12.81-20.39,22.23-34.8,25.67Z"/>
        <path class="cls-3" d="M485.21,179.01c.29,1.66.63,3.27,1,4.84-2.91-2.35-5.82-4.69-8.74-7.02-1.51-1.21-3.01-2.41-4.52-3.61-.65-.52-1.51-1.2-2.16-1.72-.31-.25-.72-.58-1.04-.82-.3-.24-.91-.74-1-.8-.41-.26-.71-3.17-1-4.83,5.23,4.16,14.05,8.05,17.45,13.96Z"/>
        <path class="cls-5" d="M540.85,120.89c-5.82-4.93-12.22-9.78-17.45-14.66-.21-.19-.43-.42-.65-.6,6.98,5.81,10.47,8.74,17.45,14.65.22.19.44.39.65.61Z"/>
        <path class="cls-5" d="M559.71,92.35c-.08-.06-.19-.16-.27-.23-5.73-4.95-17.19-14.72-17.19-14.72,0,0,2.66,1.8,3.92,2.87,6.98,5.95,10.47,8.95,17.45,15.01-1.25-1.09-2.56-2.07-3.91-2.93Z"/>
        <path class="cls-3" d="M559.35,89.65c-.3-.21-.65-.56-.93-.8-.15-.13-.34-.29-.49-.42-.86-.74-1.71-1.48-2.57-2.21-1.33-1.14-2.66-2.28-3.99-3.42-3.16-2.71-9.47-8.08-9.47-8.08,0,0,3.92,2.42,5.72,3.96,6.98,5.96,10.47,8.96,17.45,15.03-1.8-1.57-3.71-2.92-5.72-4.05Z"/>
        <path class="cls-3" d="M540.15,123.42c-5.82-4.92-12.98-9.81-17.45-14.65-.41-.44-.84-1.05-1.31-1.45,6.98,5.8,10.47,8.73,17.45,14.63.47.4.91.89,1.31,1.47Z"/>
        <path class="cls-7" d="M546.18,80.27c6.98,5.95,10.47,8.95,17.45,15.01,1.73,1.5,3.37,3.22,4.9,5.14-6.98-6.09-10.47-9.11-17.45-15.09-1.54-1.9-3.17-3.59-4.9-5.06Z"/>
        <path class="cls-5" d="M547.62,78.67c6.98,5.96,10.47,8.96,17.45,15.03,1.8,1.56,3.49,3.34,5.08,5.34-6.98-6.1-10.47-9.13-17.45-15.11-1.59-1.97-3.28-3.72-5.08-5.25Z"/>
        <path class="cls-3" d="M549.01,77.03c6.98,5.96,10.47,8.97,17.45,15.05,1.88,1.64,3.65,3.5,5.31,5.59-6.98-6.12-10.47-9.14-17.45-15.14-1.66-2.06-3.43-3.89-5.31-5.5Z"/>
        <path class="cls-5" d="M468.22,145.34c0,4.23.19,8.25.57,12.04-.25,2.61-.53,5.25-1.02,7.67-2.18,10.69-5.78,21.57-11.67,31.02-7.7,12.35-20.38,22.44-34.8,25.96-11.28,2.75-23.39.88-32.55-6.53-4.61-3.73-8.28-8.68-11.01-14.84-.53-1.2-1.02-2.45-1.49-3.74-3.27-9.08-4.39-20.51-4.36-29.89.06-19.13,5.39-40.08,17.62-55.48,7.95-10.02,18.99-17.7,31.44-20.68,12.83-3.08,26.68.21,35.43,10.4,5.75,6.7,9.95,17.48,11.34,26.02.37,2.27.76,4.72,1.02,7.22-.33,3.51-.5,7.12-.5,10.84ZM454.48,195.23c8.75-14.36,12.77-31.92,12.82-48.35.04-14.88-2.82-32.19-12.56-44.09-8.17-9.98-21.56-12.86-33.81-9.92-11.87,2.85-22.42,10.19-30.01,19.75-11.88,14.98-17,35.33-17.05,53.94-.04,15.99,2.95,36.32,16.3,47.22,8.7,7.11,20.31,8.89,31.11,6.25,13.79-3.37,25.97-12.49,33.19-24.79"/>
        <path class="cls-7" d="M528.94,182.76c-6.98-5.84-10.47-8.74-17.45-14.49-1.42-1.17-2.65-3.04-3.69-5.61-2.14-5.32-3.22-13.15-3.21-23.49,0-10.51,1.15-18.68,3.44-24.49,6.98,5.73,10.47,8.62,17.45,14.44-2.29,5.79-3.43,13.94-3.44,24.45,0,10.34,1.07,18.18,3.21,23.53,1.04,2.58,2.27,4.46,3.69,5.66Z"/>
        <path class="cls-5" d="M530.37,181.13c-6.98-5.85-10.47-8.75-17.45-14.51-1.06-.87-2.19-2.39-3.24-4.99-2.05-5.09-3.08-12.77-3.08-22.82,0-10.2,1.1-18.16,3.28-23.72,6.98,5.74,10.47,8.63,17.45,14.47-2.18,5.53-3.28,13.48-3.28,23.68,0,10.05,1.03,17.74,3.08,22.86,1.05,2.62,2.18,4.15,3.24,5.04Z"/>
        <path class="cls-3" d="M519.99,109.01c6.98,5.79,10.47,8.71,17.45,14.61-.78-.66-1.64-.93-2.58-.78-2.11.33-4.02,2.75-5.68,7.16-2.08,5.29-3.14,12.98-3.14,22.9-6.98-5.83-10.47-8.72-17.45-14.45,0-9.93,1.06-17.63,3.14-22.95,1.66-4.43,3.57-6.87,5.68-7.23.93-.16,1.8.1,2.58.75Z"/>
        <path class="cls-3" d="M467.76,165.04c.29,1.66.63,3.27,1,4.83-1.87,9.15-6.23,19.29-11.05,27.04-8.05,12.94-21.34,23.44-36.42,27.12-11.77,2.87-24.43.93-33.99-6.79-2.87-2.32-5.4-5.11-7.56-8.34-.71-1.05-1.37-2.15-2.01-3.3v-4.94c2.73,6.16,6.4,11.12,11.01,14.84,9.16,7.41,21.28,9.28,32.55,6.53,14.42-3.52,27.11-13.61,34.8-25.96,5.89-9.46,9.09-20.07,11.67-31.02Z"/>
        <path class="cls-1" d="M405.45,231.16c-6.98-5.37-10.47-8.04-17.45-13.37,9.5,7.3,21.8,9.01,33.28,6.24,15.1-3.71,28.5-13.66,36.42-27.12,5.13-7.82,9.19-17.89,11.05-27.04,6.98,5.55,10.47,8.35,17.45,13.97-1.86,9.12-5.92,19.15-11.05,26.93-7.93,13.4-21.35,23.22-36.42,26.82-11.51,2.7-23.8.9-33.28-6.43Z"/>
        <path class="cls-3" d="M502.52,208.6c.23.2.46.39.69.58-6.98-5.71-10.47-8.54-17.45-14.16-.23-.19-.46-.38-.69-.57-11.18-9.78-13.96-23.12-16.29-37.07,6.98,5.55,10.47,8.35,17.45,13.97,2.33,14.01,5.14,27.37,16.29,37.25Z"/>
        <path class="cls-5" d="M487.66,158.92c.74,15.77,14.09,45.95,14.09,45.95,0,0-12.11-9.43-17.45-14.15-12.05-10.65-13.35-30.1-14.09-45.8-.05-11.91,5.04-34.71,6.2-35.02,1.42-.37,16.74,11.34,17.45,14.06,1.22,4.69-6.25,23.06-6.2,34.95Z"/>
        <path class="cls-5" d="M503.96,206.95c.22.19.44.37.66.55-6.98-5.71-10.47-8.55-17.45-14.18-.22-.18-.44-.36-.66-.55-.76-.65-2.21-2.05-2.21-2.05,0,0,1.43,1.15,2.04,1.64.65.52,1.51,1.22,2.16,1.74.67.54,1.57,1.27,2.24,1.81.68.55,1.6,1.29,2.28,1.85.69.56,1.6,1.3,2.28,1.85.67.55,1.57,1.28,2.24,1.82.65.53,1.51,1.23,2.16,1.76.61.5,1.49,1.16,2.04,1.66.71.65,1.45,1.41,2.21,2.07Z"/>
        <path class="cls-3" d="M531.73,179.42c-6.98-5.86-10.47-8.76-17.45-14.53-.98-.81-1.9-2.25-2.73-4.31-1.96-4.87-2.96-12.32-2.95-22.13,6.98,5.73,10.47,8.62,17.45,14.45,0,9.81.99,17.27,2.95,22.17.83,2.07,1.74,3.52,2.73,4.35Z"/>
        <path class="cls-3" d="M541.53,173.63c-5.82-4.93-16.66-11.75-17.45-14.67-.68-2.5,3.1-13.44,3.1-22.99,0-10.4-4.49-27.19-4.49-27.19,0,0,1.17.97,1.66,1.39.26.22.61.51.87.73.54.45,1.26,1.05,1.8,1.5.56.46,1.3,1.08,1.85,1.55.56.47,1.31,1.1,1.87,1.57.56.47,1.3,1.09,1.85,1.56.54.45,1.26,1.06,1.8,1.52.52.43,1.2,1.01,1.72,1.45.3.25.7.59,1,.84.12.1.27.23.39.33.12.1.28.24.4.34.12.11.29.25.42.35.13.11.29.25.42.35.21.17.41.35.62.52.12.1.28.23.4.34.11.09.31.2.37.32,2.78,4.93,4.49,16.86,4.49,27.26,0,9.55-1.05,17.26-3.1,22.95Z"/>
        <path class="cls-5" d="M545.54,165.57c-5.82-4.95-16.17-11.26-17.45-14.72-.78-2.11,1.09-9.47,1.1-15.2.17-9.22-5.78-29.4-5.78-29.4.02-.02,7.33,6.12,10.99,9.2,1.16.98,2.32,1.96,3.48,2.94.27.23.62.53.89.75.26.22.61.51.87.73.25.21.58.49.83.7.12.1.36.23.39.33,2.16,6.3,5.95,20.23,5.78,29.49,0,5.73-.37,10.79-1.1,15.19Z"/>
        <path class="cls-7" d="M504.63,207.5c-6.98-5.71-10.47-8.55-17.45-14.18,8.84,7.87,19.52,7.74,30.45,7.2,13.61-2.58,25.91-10.86,33.18-22.76,8.87-13.97,13.19-30.91,12.83-47.45-.72-16.1-2.46-31.72-12.56-44.98,6.98,5.98,10.47,8.99,17.45,15.09,10.06,13.37,11.84,29.02,12.56,45.19.37,16.47-3.92,33.36-12.83,47.23-7.29,11.8-19.62,19.88-33.18,22.25-10.98.4-21.65.35-30.45-7.59Z"/>
        <path class="cls-5" d="M503.22,209.18c-6.98-5.71-10.47-8.54-17.45-14.16,8.94,7.26,20.64,9.59,31.86,7.51,14.24-2.71,27.17-11.38,34.8-23.82,9.09-14.32,13.57-31.7,13.21-48.66-.75-16.51-2.6-32.52-12.93-46.13,6.98,5.99,10.47,9.01,17.45,15.11,10.3,13.72,12.18,29.76,12.93,46.35.37,16.88-4.08,34.21-13.21,48.43-7.65,12.33-20.62,20.79-34.8,23.28-11.27,1.92-22.95-.59-31.86-7.93Z"/>
        <path class="cls-3" d="M554.32,82.53c6.98,6,10.47,9.02,17.45,15.14,5.7,6.92,9.88,17.23,11.34,25.99-6.98-6.2-10.47-9.26-17.45-15.34-1.45-8.7-5.63-18.96-11.34-25.8Z"/>
        <path class="cls-3" d="M534.21,182.2c-.66.1-2.15.34-3.84-1.07-6.98-5.85-10.47-8.75-17.45-14.51,1.69,1.39,3.18,1.13,3.84,1.02,5.23,4.33,12.21,10.16,17.45,14.56Z"/>
        <path class="cls-3" d="M541.53,173.63c-.04.11-.11.31-.12.32-1.34.35-16.68-11.78-17.45-14.66-.01-.05.11-.31.12-.32,1.32-.36,11.63,9.73,17.45,14.67Z"/>
        <path class="cls-3" d="M534.21,182.2c-5.82-4.9-17.45-14.56-17.45-14.56,0-.02.96-.36,1.22-.32.39.06,1.42,1.18,2.03,1.69.65.54,1.51,1.25,2.16,1.79.67.56,1.57,1.3,2.24,1.86.68.57,1.6,1.33,2.28,1.9.68.57,1.6,1.33,2.28,1.91.67.56,1.57,1.31,2.24,1.88.65.54,1.51,1.27,2.16,1.81.61.51,2.03,1.71,2.03,1.71,0,0-11.61-9.74-17.42-14.55,0,0,0,0,0,0,.61.51,1.43,1.18,2.04,1.69.65.54,1.51,1.26,2.16,1.79.67.56,1.57,1.31,2.24,1.87.68.57,1.6,1.33,2.28,1.91.68.57,1.6,1.34,2.28,1.91.67.56,1.57,1.32,2.24,1.88.65.54,1.51,1.27,2.16,1.82.61.51,2.04,1.71,2.04,1.72-.01.07-.94.26-1.22.3Z"/>
        <path class="cls-3" d="M541.42,173.94c-2.03,5.66-5.21,8.09-5.99,7.95-3.71-.64-17.46-14.53-17.45-14.58.01-.08,1.52-1.09,1.79-1.09,2.71-.01,17.44,14.6,17.44,14.6,0,0-17.43-13.44-17.44-14.6,0-.2,1.37-1.35,2.09-2.47,5.82,4.84,17.45,14.63,17.45,14.63,0,0-11.63-9.8-17.45-14.63,0,0,0,0,0,0,.72-1.12,1.96-4.44,2.11-4.48,1.31-.36,11.63,9.73,17.45,14.66Z"/>
        <path class="cls-5" d="M545.54,165.57c-.55,3.3-1.3,6.23-2.26,8.79-6.98-5.93-10.47-8.87-17.45-14.69.96-2.57,2.26-8.82,2.26-8.82.94-.35,11.63,9.77,17.45,14.72Z"/>
        <path class="cls-5" d="M534.2,184.21c-1.98.31-3.73-.17-5.26-1.45-6.98-5.84-10.47-8.74-17.45-14.49,1.53,1.26,4.15,1.08,5.26,1.38,4.25,1.13,17.45,14.56,17.45,14.56,0,0-11.63-9.75-17.45-14.56h0c3.93-.68,6.96-4,9.07-9.97,6.98,5.83,10.47,8.76,17.45,14.69-2.12,5.94-5.14,9.22-9.07,9.84Z"/>
        <path class="cls-7" d="M551.08,85.34c10.1,13.26,12.03,29.06,12.56,44.98.54,16.35-4.15,33.52-12.83,47.45-7.31,11.73-19.59,20.2-33.18,22.76-11.02,2.07-22.54-.38-31.11-7.74-13.21-11.34-16.34-31.6-16.3-47.84.04-18.39,5.03-38.63,17.04-53.28,7.6-9.27,18.19-16.14,30.01-18.31,12.65-2.32,25.7,1.66,33.82,11.99ZM525.83,159.67c2.23-5.99,3.55-14.19,3.35-24.03-.15-7.64.04-32.37-11.77-31.37-3.63.31-7.06,4.15-9.39,10.4-2.29,5.82-3.43,13.98-3.44,24.49,0,10.34,1.07,18.18,3.21,23.49,2.14,5.32,5.14,7.64,8.95,6.98,3.93-.68,6.96-4,9.07-9.97"/>
        <path class="cls-5" d="M517.41,104.27c12.96.02,11.62,23.72,11.77,31.37.19,9.83-1.12,18.03-3.35,24.03-2.12,5.97-5.14,9.3-9.07,9.97-3.82.66-6.81-1.67-8.95-6.98-2.14-5.32-3.22-13.15-3.21-23.49,0-10.51,1.15-18.68,3.44-24.49,2.33-6.26,5.46-9.73,9.39-10.4ZM523.97,159.28c2.13-5.75,3.11-13.69,3.22-23.31.09-7.76-.19-29.84-9.77-29.7-.96.01-4.54.78-7.53,8.81-2.18,5.56-3.28,13.53-3.28,23.72,0,10.05,1.03,17.73,3.08,22.82,2.73,6.76,6.01,6.2,7.08,6.01,1.12-.19,4.51-.77,7.21-8.36"/>
        <path class="cls-5" d="M552.7,83.93c10.34,13.61,12.39,29.81,12.93,46.13.56,16.75-4.29,34.38-13.21,48.66-7.67,12.28-20.59,21.15-34.8,23.82-11.5,2.16-23.64-.4-32.55-8.09-11.17-9.63-14.48-23.51-16.29-37.07-.49-3.65-.57-7.8-.57-12.04,0-3.72.16-7.35.5-10.84,1.55-15.56,6.99-31.89,17.11-43.98,7.98-9.52,19.05-16.91,31.43-19.18,13.25-2.43,26.94,1.77,35.44,12.58ZM550.81,177.76c8.87-13.97,13.37-31.1,12.83-47.45-.53-15.92-2.44-31.9-12.56-44.98-7.98-10.32-21.17-14.31-33.82-11.99-11.82,2.17-22.4,9.04-30.01,18.31-12.01,14.65-17,34.9-17.04,53.28-.04,16.24,3.09,36.5,16.3,47.84,8.58,7.36,20.1,9.81,31.11,7.74,13.6-2.56,25.91-10.86,33.18-22.76"/>
        <path class="cls-3" d="M516.76,167.64c-1.07.18-4.35.75-7.08-6.01-2.05-5.09-3.08-12.77-3.08-22.82,0-10.2,1.1-18.16,3.28-23.72,3-8.03,6.57-8.8,7.53-8.81,9.58-.15,9.86,21.94,9.77,29.7-.11,9.62-1.14,17.59-3.22,23.31-2.73,7.52-6.09,8.17-7.21,8.36ZM508.59,138.45c0,9.81.99,17.27,2.95,22.13,1.49,3.69,3.25,5.4,5.21,5.06.77-.13,3.09-.6,5.34-6.76,2-5.5,3.28-13.31,3.08-22.58-.19-9.05-1.01-26.85-7.77-28.03-1.4-.25-4,2.85-5.68,7.23-2.02,5.29-3.14,13.02-3.14,22.95"/>
        <path class="cls-3" d="M565.66,108.32c6.98,6.07,10.47,9.14,17.45,15.34,0,14.18,0,28.35-.01,42.53-6.98-6.2-10.47-9.26-17.45-15.34,0-14.18,0-28.35.01-42.53Z"/>
        <path class="cls-1" d="M501.79,210.85c-6.98-5.7-10.47-8.53-17.45-14.15,9.35,7.58,21.57,9.99,33.28,7.82,14.88-2.83,28.43-11.86,36.41-24.86,5.61-8.14,9.91-19.09,11.61-28.81,6.98,6.07,10.47,9.14,17.45,15.34-1.68,9.65-5.99,20.55-11.61,28.61-8,12.9-21.59,21.7-36.41,24.3-11.77,2.01-23.97-.59-33.28-8.25Z"/>
        <path class="cls-3" d="M554.32,82.53c5.71,6.84,9.89,17.1,11.34,25.8,0,14.18,0,28.35-.01,42.53-1.69,9.72-6.35,20.74-11.61,28.81-8.11,12.45-21.56,22.08-36.41,24.86-12,2.25-24.58-.6-33.99-8.41-7.24-6-12.94-17.33-14.87-26.25-.33-1.53-.71-3.17-1-4.83.43-2.5.77-5.06,1.02-7.67,2.33,13.95,5.12,27.43,16.29,37.07,8.91,7.68,21.05,10.24,32.55,8.09,14.21-2.67,27.13-11.53,34.8-23.82,8.91-14.28,13.77-31.91,13.21-48.66-.55-16.32-2.57-32.73-12.93-46.13-8.34-10.79-22.19-15.01-35.44-12.58-12.38,2.27-23.45,9.65-31.43,19.18-10.12,12.08-15.49,28.35-17.11,43.98-.25-2.5-.59-4.9-1.02-7.22.3-1.77.64-3.51,1.03-5.21,2.67-11.89,7.96-23.25,15.68-32.67,8.32-10.15,19.83-17.87,32.85-20.05,13.54-2.26,28.52,1.57,37.06,13.18Z"/>
      </g>
      <g class="cls-2">
        <path class="cls-3" d="M569.68,65.7c6.98,6.1,10.47,9.18,17.45,15.41-1.11.12-2.01,1.12-2.01,2.23-6.98-6.21-10.47-9.28-17.45-15.37,0-1.11.9-2.12,2.01-2.26Z"/>
        <path class="cls-3" d="M601.82,62.18c6.98,6.34,10.47,9.54,17.45,16.02-10.74.84-21.43,1.81-32.14,2.9-6.98-6.23-10.47-9.31-17.45-15.41,10.71-1.29,21.41-2.46,32.14-3.52Z"/>
        <path class="cls-5" d="M601.82,64.19c6.98,6.34,10.47,9.54,17.45,16.02-10.74.84-21.43,1.81-32.14,2.9-6.98-6.23-10.47-9.31-17.45-15.41,10.71-1.29,21.41-2.46,32.14-3.52Z"/>
        <path class="cls-3" d="M656.21,86.68c-10.85-8.47-23.84-8.58-36.94-8.47-6.98-6.48-10.47-9.68-17.45-16.02,13.01-.38,26.01-.6,36.94,7.67.9.71,1.75,1.46,2.57,2.24,6.98,6.67,10.47,10.05,17.45,16.88-.81-.8-1.67-1.56-2.57-2.3Z"/>
        <path class="cls-5" d="M634.96,80.51c-4.69-.6-9.92-.71-15.69-.29-6.98-6.48-10.47-9.68-17.45-16.02,5.77-.53,12.77-1.36,15.69-.04,4.94,2.25,11.63,10.84,17.45,16.35Z"/>
        <path class="cls-7" d="M605.16,90.71c6.98,6.37,10.47,9.58,17.45,16.09-.93.06-1.39.09-2.31.16-6.98-6.49-10.47-9.7-17.45-16.04.93-.08,1.39-.13,2.31-.21Z"/>
        <path class="cls-5" d="M634.96,80.51c-.34-.16-.63-.59-.9-.85-5.52-5.22-16.55-15.5-16.55-15.5.09-.19,8.8,1.01,11.2,2.48.93.57,2,1.88,3,2.82.48.45,1.12,1.06,1.6,1.51.49.46,1.14,1.08,1.63,1.54.49.46,1.14,1.08,1.63,1.55.48.46,1.12,1.06,1.6,1.52.46.44,1.08,1.03,1.54,1.47.44.42,1.02.97,1.45,1.39.83.8,1.67,1.6,2.5,2.39.2.19.46.44.65.63.19.19.45.43.64.62.19.18.43.42.62.6.18.17.58.56.58.56-.04.06-7.05-2.2-11.2-2.73Z"/>
        <path class="cls-5" d="M605.16,92.7c6.98,6.37,10.47,9.58,17.45,16.09-.12,0-.18.01-.31.02-6.98-6.51-10.47-9.72-17.45-16.08.12-.01.18-.02.31-.03Z"/>
        <path class="cls-7" d="M613.39,93.35c6.98,6.43,10.47,9.68,17.45,16.26-2.22-2.09-4.96-3.03-8.23-2.81-6.98-6.51-10.47-9.73-17.45-16.09,3.27-.29,6.01.59,8.23,2.64Z"/>
        <path class="cls-5" d="M611.97,94.87c6.98,6.42,10.47,9.67,17.45,16.23-1.85-1.74-4.09-2.5-6.81-2.31-6.98-6.51-10.47-9.73-17.45-16.09,2.73-.24,4.96.47,6.81,2.17Z"/>
        <path class="cls-7" d="M602.85,90.91c6.98,6.35,10.47,9.55,17.45,16.04,0,9.39,0,18.78,0,28.17-6.98-6.49-10.47-9.7-17.45-16.04,0-9.39,0-18.78,0-28.17Z"/>
        <path class="cls-5" d="M604.85,92.73c6.98,6.36,10.47,9.58,17.45,16.08,0,9.7,0,14.55,0,24.24-6.98-6.51-10.47-9.72-17.45-16.08,0-9.7,0-14.55,0-24.24Z"/>
        <path class="cls-3" d="M610.58,96.42c6.98,6.41,10.47,9.65,17.45,16.2-1.08-1.02-2.3-1.61-3.73-1.79-6.98-6.52-10.47-9.75-17.45-16.13,1.43.16,2.65.72,3.73,1.72Z"/>
        <path class="cls-5" d="M646.16,83.24c-.21-.13-.41-.39-.58-.56-.09-.09-.21-.21-.31-.29-.54-.52-1.07-1.03-1.61-1.55-.83-.8-1.67-1.6-2.5-2.39-4.15-3.97-12.45-11.8-12.45-11.8.04-.06,6.26,2.83,8.76,4.8.86.69,1.69,1.4,2.47,2.15,6.98,6.66,10.47,10.03,17.45,16.85-.78-.76-1.6-1.5-2.47-2.2-2.49-2.03-5.41-3.71-8.76-5Z"/>
        <path class="cls-3" d="M606.85,94.71c6.98,6.38,10.47,9.6,17.45,16.13,0,7.95,0,11.93,0,19.88-6.98-6.52-10.47-9.75-17.45-16.13v-19.88Z"/>
        <path class="cls-5" d="M604.35,119.02c6.98,6.36,10.47,9.57,17.45,16.07-.6,0-.91.01-1.51.02-6.98-6.49-10.47-9.7-17.45-16.04.6-.02.91-.03,1.51-.06Z"/>
        <path class="cls-3" d="M630,129.48c-1.93,2.1-4.45,3.26-7.7,3.57-6.98-6.51-10.47-9.72-17.45-16.08,3.26-.38,5.78-1.59,7.7-3.73,2.03-2.26,3.02-5.19,3.02-8.99,0-3.77-.98-6.65-3-8.78-.19-.21-.39-.41-.59-.59,6.98,6.42,10.47,9.67,17.45,16.23.2.19.4.39.59.61,2.02,2.18,3,5.08,3,8.85,0,3.8-.99,6.71-3.02,8.93Z"/>
        <path class="cls-5" d="M621.8,135.1c-5.82-5.42-17.45-16.07-17.45-16.07.11-.32,7.24-1.85,9.63-4.5,2.39-2.65,3.58-10.42,3.58-10.42.61-.27,17.45,16.35,17.45,16.35,0,0-8.83-8.34-13.25-12.45-.81-.75-1.62-1.5-2.42-2.25-.16-.14-.36-.34-.52-.48-.25-.24-.51-.47-.76-.71-.07-.07-.17-.16-.25-.23-.07-.07-.25-.12-.25-.23,0-4.24-3.5-10.07-3.5-10.07,0,0,17.45,16.27,17.45,16.27,0,0-12.08-10.91-17.45-16.28-.22-.22-.45-.47-.68-.68,6.98,6.43,10.47,9.68,17.45,16.26.23.22.46.45.68.69,2.33,2.52,3.5,5.91,3.5,10.15,0,4.3-1.19,7.74-3.58,10.35-2.39,2.6-5.6,4.03-9.63,4.3Z"/>
        <path class="cls-3" d="M567.67,67.96c6.98,6.09,10.47,9.16,17.45,15.37-.01,40.96-.02,81.91-.04,122.87-6.98-6.21-10.47-9.28-17.45-15.37.01-40.96.02-81.91.04-122.87Z"/>
        <path class="cls-5" d="M569.68,67.71c6.98,6.1,10.47,9.18,17.45,15.41-.01,40.96-.02,81.91-.04,122.87-6.98-6.23-10.47-9.31-17.45-15.41.01-40.96.02-81.91.04-122.87Z"/>
        <path class="cls-7" d="M639.94,73.59c6.98,6.66,10.47,10.03,17.45,16.85,7.91,7.76,11.36,18.73,11.21,29.64.24,12.77-4.25,25.58-14.57,33.59-8.22,6.4-18.68,7.45-28.57,8.72-6.98-6.53-10.47-9.76-17.45-16.15,9.94-1.49,20.4-2.78,28.57-9.34,10.26-8.2,14.8-21.06,14.57-33.93.16-10.83-3.26-21.75-11.21-29.38Z"/>
        <path class="cls-7" d="M637.47,71.44c9.57,7.59,13.67,19.75,13.68,31.52,0,12.65-4.33,25.73-14.57,33.93-8.17,6.54-18.63,7.85-28.57,9.34-2.07.18-3.1.27-5.17.45v40.27c-11.1,1.08-22.13,2.28-33.19,3.61.01-40.96.02-81.91.04-122.87,10.71-1.29,21.41-2.46,32.14-3.52,12.52-.39,25.11-.7,35.65,7.25ZM613.98,114.52c2.39-2.65,3.58-6.12,3.58-10.42,0-4.24-1.19-7.6-3.5-10.07-2.33-2.5-5.3-3.64-8.91-3.32-.93.08-1.39.12-2.31.21,0,9.39,0,18.78,0,28.17.6-.02.91-.03,1.51-.06,4.03-.36,7.24-1.85,9.63-4.5"/>
        <path class="cls-3" d="M605.16,92.7c3.02-.27,5.44.66,7.4,2.76,1.99,2.13,3,5.01,3,8.78,0,3.8-.99,6.74-3.02,8.99-1.92,2.14-4.45,3.36-7.7,3.73,0-9.7,0-14.55,0-24.24.12-.01.18-.02.31-.03ZM611.11,111.97c1.66-1.84,2.46-4.32,2.46-7.57,0-3.27-.84-5.72-2.51-7.5-1.21-1.28-2.56-2.01-4.21-2.19v19.88c1.73-.49,3.12-1.34,4.26-2.62"/>
        <path class="cls-7" d="M608,146.24c6.98,6.39,10.47,9.62,17.45,16.15-2.07.13-3.1.2-5.17.35-6.98-6.49-10.47-9.7-17.45-16.04,2.07-.19,3.1-.28,5.17-.45Z"/>
        <path class="cls-3" d="M585.08,206.21c0,.55.22,1.02.59,1.34-6.98-6.22-10.47-9.29-17.45-15.38-.36-.32-.59-.79-.59-1.33,5.23,4.57,12.21,10.71,17.45,15.37Z"/>
        <path class="cls-5" d="M585.67,207.55c-6.98-6.22-10.47-9.29-17.45-15.38.36.32.87.48,1.42.41,6.98,6.1,10.47,9.18,17.45,15.41-.55.06-1.06-.11-1.42-.43Z"/>
        <path class="cls-5" d="M641.32,72.09c6.98,6.67,10.47,10.05,17.45,16.88,8.28,8.15,11.97,19.64,11.82,31.1.24,13.39-4.56,26.78-15.36,35.17-8.58,6.66-19.44,7.8-29.78,9.15-6.98-6.53-10.47-9.76-17.45-16.15,10.44-.76,21.32-3.33,29.78-9.8,10.36-8.66,15.85-22.05,15.36-35.54.15-11.37-3.5-22.81-11.82-30.81Z"/>
        <path class="cls-7" d="M602.83,146.7c6.98,6.35,10.47,9.55,17.45,16.04,0,13.42,0,26.85-.01,40.27-6.98-6.49-10.47-9.7-17.45-16.04v-40.27Z"/>
        <path class="cls-7" d="M602.82,186.97c6.98,6.35,10.47,9.55,17.45,16.04-11.08.86-22.12,1.85-33.18,2.98-6.98-6.23-10.47-9.31-17.45-15.41,11.06-1.33,22.09-2.53,33.18-3.61Z"/>
        <path class="cls-5" d="M638.76,69.85c10.01,7.97,14.26,20.82,14.39,33.05.14,13.14-5.05,27.28-15.36,35.54-8.13,6.51-19.34,9.04-29.78,9.8-1.27.11-1.9.16-3.17.27,0,12.76,0,25.51-.01,38.27,0,1.1-.9,2.08-2.01,2.18-11.08,1.08-22.12,2.28-33.18,3.61-1.11.14-2.01-.64-2.01-1.74.01-40.96.02-81.91.04-122.87,0-1.11.9-2.12,2.01-2.26,10.71-1.29,21.41-2.46,32.14-3.52,13.01-.38,26.01-.6,36.94,7.67ZM636.58,136.9c10.26-8.2,14.58-21.28,14.57-33.93,0-11.77-4.13-24.14-13.68-31.52-10.32-7.98-23.13-7.64-35.65-7.25-10.74,1.05-21.43,2.23-32.14,3.52-.01,40.96-.02,81.91-.04,122.87,11.06-1.33,22.09-2.53,33.18-3.61v-40.27c2.08-.19,3.12-.28,5.19-.45,9.94-1.49,20.4-2.78,28.57-9.34"/>
        <path class="cls-5" d="M605.16,90.71c3.61-.32,6.58.82,8.91,3.32,2.3,2.47,3.5,5.84,3.5,10.07,0,4.3-1.19,7.77-3.58,10.42-2.39,2.65-5.6,4.14-9.63,4.5-.6.02-.91.03-1.51.06,0-9.39,0-18.78,0-28.17.93-.08,1.39-.13,2.31-.21ZM612.55,113.24c2.03-2.26,3.02-5.19,3.02-8.99,0-3.77-1.01-6.65-3-8.78-1.96-2.1-4.38-3.03-7.4-2.76-.12.01-.18.02-.31.03,0,9.7,0,14.55,0,24.24,3.26-.38,5.78-1.59,7.7-3.73"/>
        <path class="cls-5" d="M608,148.24c6.98,6.39,10.47,9.62,17.45,16.15-1.27.08-1.9.12-3.17.21-6.98-6.51-10.47-9.72-17.45-16.08,1.27-.11,1.9-.17,3.17-.27Z"/>
        <path class="cls-5" d="M604.84,148.51c6.98,6.36,10.47,9.58,17.45,16.08,0,12.76,0,25.51-.01,38.27-6.98-6.51-10.47-9.72-17.45-16.08,0-12.76,0-25.51.01-38.27Z"/>
        <path class="cls-3" d="M608,150.24c6.98,6.39,10.47,9.62,17.45,16.15-.47.03-.7.05-1.17.08-6.98-6.52-10.47-9.75-17.45-16.13.47-.04.7-.06,1.17-.1Z"/>
        <path class="cls-3" d="M584.25,209.12c-6.98-6.21-10.47-9.27-17.45-15.36.72.63,1.73.95,2.83.81,6.98,6.1,10.47,9.18,17.45,15.41-1.11.12-2.11-.22-2.83-.86Z"/>
        <path class="cls-3" d="M642.76,70.64c6.98,6.69,10.47,10.07,17.45,16.92,8.65,8.53,12.54,20.53,12.39,32.51.52,14.01-5.26,27.91-16.17,36.74-8.85,6.57-20.16,9.02-30.98,9.58-6.98-6.53-10.47-9.76-17.45-16.15,10.88-.8,22.18-3.52,30.98-10.26,10.85-9.04,16.69-23.01,16.17-37.12.16-11.89-3.69-23.84-12.39-32.21Z"/>
        <path class="cls-5" d="M602.82,188.96c6.98,6.35,10.47,9.55,17.45,16.04-11.08.86-22.12,1.85-33.18,2.98-6.98-6.23-10.47-9.31-17.45-15.41,11.06-1.33,22.09-2.53,33.18-3.61Z"/>
        <path class="cls-5" d="M604.82,186.79c6.98,6.36,10.47,9.58,17.45,16.08,0,1.1-.9,2.06-2.01,2.14-6.98-6.49-10.47-9.7-17.45-16.04,1.11-.1,2.01-1.08,2.01-2.18Z"/>
        <path class="cls-1" d="M602.82,190.96c6.98,6.35,10.47,9.55,17.45,16.04-11.08.86-22.12,1.85-33.18,2.98-6.98-6.23-10.47-9.31-17.45-15.41,11.06-1.33,22.09-2.53,33.18-3.61Z"/>
        <path class="cls-3" d="M606.83,150.34c6.98,6.38,10.47,9.6,17.45,16.13,0,12.09,0,24.18-.01,36.27-6.98-6.52-10.47-9.75-17.45-16.13,0-12.09,0-24.18.01-36.27Z"/>
        <path class="cls-3" d="M640.04,68.26c10.47,8.35,14.97,21.77,15.11,34.59.14,13.76-5.36,28.48-16.17,37.12-8.49,6.78-20.1,9.46-30.98,10.26-.47.04-.7.06-1.17.1,0,12.09,0,24.18-.01,36.27,0,2.2-1.8,4.15-4.01,4.35-11.08,1.08-22.12,2.28-33.18,3.61-2.21.28-4-1.28-4-3.48,0-13.41,0-26.83.01-40.24,0-14.18,0-28.35.01-42.53,0-13.37,0-26.74.01-40.1,0-2.2,1.79-4.24,4.01-4.52,10.71-1.29,21.41-2.46,32.14-3.52,13.5-.39,26.91-.53,38.22,8.07ZM637.78,138.44c10.36-8.66,15.5-22.4,15.36-35.54-.13-12.24-4.41-25.31-14.39-33.05-10.69-8.3-23.92-8.05-36.94-7.67-10.74,1.05-21.43,2.23-32.14,3.52-1.11.14-2.01,1.15-2.01,2.26-.01,40.96-.02,81.91-.04,122.87,0,1.1.9,1.88,2.01,1.74,11.06-1.33,22.09-2.53,33.18-3.61,1.11-.1,2.01-1.08,2.01-2.18,0-12.76,0-25.51.01-38.27,1.27-.11,1.9-.17,3.17-.27,10.44-.76,21.32-3.33,29.78-9.8"/>
        <path class="cls-3" d="M606.82,186.61c6.98,6.38,10.47,9.6,17.45,16.13,0,2.2-1.8,4.11-4.01,4.27-6.98-6.49-10.47-9.7-17.45-16.04,2.2-.2,4.01-2.15,4.01-4.35Z"/>
      </g>
    </g>
    <g>
      <path class="cls-4" d="M10.99,141.67c-2.43.15-4.22-.77-4.67-2.28-.12-.37.04-.57.45-.54,3.65.25,10.47-1.39,12.79-1.38,1.71,0,3.28.39,3.9,1.97.12.32.04.66-.49.63-2.01-.14-4.59.34-6.97.8.04.98-.25,2.34-1.35,4.38-2.46,4.52-5.95,10.31-9.14,17.84-.16.41-.37.41-.66.13-.57-.53-1.07-1.77-.53-3.73.92-3.36,5.37-12.3,9.18-18.16-.94.18-1.77.29-2.5.33Z"/>
      <path class="cls-4" d="M23.65,163.26c-3.44.11-4.29-2.38-3.07-5.97,1.36-4,4.92-8.4,4.26-8.74-.57-.31-5.04,2.62-7.42,6.57-1.48,2.45-2.99,5.36-3.98,7.88-.16.37-.45.46-.7.18-.66-.73-1.02-1.87-.16-4.34,1.43-4.13,9.96-18.77,13.28-23.03.37-.51.78-.48.98,0,.53,1.17.41,3.23-1.15,5.86-.98,1.67-3.16,5.07-4.92,7.87,1.68-1.69,3.82-3.12,4.92-3.03,1.39.11,2.65,2.12,1.6,4.25-.91,1.83-2.88,4.91-3.81,7.06-1.03,2.4-.82,4.33.7,4.2,1.68-.14,3.94-3.18,5.21-5.85.16-.37.58-.39.74-.07.21.43.21,1.3-.41,2.56-1.15,2.38-3.65,4.53-6.07,4.61Z"/>
      <path class="cls-4" d="M32.39,161.73c3.39.03,6.4-3.42,8.16-6.23.21-.34.53-.34.7,0,.15.32.04,1.47-.7,2.58-1.72,2.6-4.88,4.64-8.04,4.83-5.2.31-7.01-4.76-4.35-10.15,2.67-5.39,6.85-7.71,8.9-6.63,1.02.56,1.76,1.15,2.42,2.01.73.94.4,3.47-1.31,5.65-2.01,2.55-4.76,3.76-7.63,1.55-1.31,3.83-.32,6.38,1.85,6.4ZM35.79,152.15c1.31-1.78,2.21-3.97,1.64-4.39-.86-.65-4.26,1.97-6.19,5.95-.12.25-.25.5-.33.71,2.01,1.19,3.69-.66,4.88-2.27Z"/>
    </g>
  </g>
</svg>